<svg xmlns="http://www.w3.org/2000/svg" preserveAspectRatio="none" width="521" height="79" viewBox="0 0 521 79">
    <path fill="#005cea" fill-rule="nonzero" d="M371.935.14c0-.077.163-.14.363-.14.2 0 .3.063.22.14a.604.604 0 0 1-.364.138c-.121 0-.22-.062-.22-.139zm-1.635.973c0-.077.105-.14.234-.14.128 0 .233.063.233.14 0 .076-.105.139-.233.139-.129 0-.234-.063-.234-.14zm29.185.417c0-.076.047-.14.104-.14.056 0 .168.064.247.14.08.077.033.14-.104.14-.136 0-.247-.064-.247-.14zm-26.208.047c.16-.039.423-.039.584 0 .16.039.029.07-.292.07s-.453-.031-.292-.07zm44.42.092c0-.076.163-.139.364-.139.2 0 .299.063.22.14a.604.604 0 0 1-.365.138c-.121 0-.22-.062-.22-.139zm-1.051 0c-.08-.076-.04-.139.09-.139.128 0 .298.063.377.14.079.076.039.138-.09.138a.625.625 0 0 1-.377-.139zm-26.267.444c0-.075.167-.174.37-.22.227-.052.334-.021.277.08-.115.208-.647.323-.647.14zm-19.475-.26c-.544-.279-.614-.373-.35-.473a2.31 2.31 0 0 1 .68-.124c.311 0 .311.016 0 .146-.26.108-.156.122.409.056.599-.07.758-.043.758.13 0 .121.158.22.35.22.193 0 .35.067.35.149 0 .086-.2.11-.477.058-.263-.05-.605-.028-.76.048-.195.097-.484.034-.96-.21zm52.048.374c-.082-.079.014-.102.22-.054.404.092.478.192.142.192a.598.598 0 0 1-.362-.138zm-81.603-.001c0-.077.105-.14.233-.14s.234.063.234.14c0 .076-.105.139-.234.139-.128 0-.233-.063-.233-.14zm90.356.139c0-.077.105-.14.234-.14.128 0 .233.063.233.14 0 .076-.104.139-.233.139-.128 0-.234-.063-.234-.14zm-6.591-.024a.906.906 0 0 1 .553-.086c.175.035.069.098-.247.147-.388.06-.48.043-.306-.06zm-55.28.101c0-.033.104-.1.233-.147.128-.047.233-.02.233.062 0 .08-.105.147-.233.147-.129 0-.234-.028-.234-.062zM344.5 2.364c-.084-.08.133-.138.511-.136.51.001.578.032.306.136-.449.173-.638.173-.817 0zm46.968.186c-.237-.141-.186-.325.091-.325.137 0 .188.058.116.128-.073.07 0 .159.161.197.162.04.18.076.04.082a.882.882 0 0 1-.408-.082zm23.893.093c-.282-.109-.245-.136.189-.137.3-.002.475.059.395.137-.174.167-.15.167-.584 0zm11.107.174c.116-.058.277-.157.357-.22.08-.065.209-.018.287.104.102.158 0 .22-.357.22-.274 0-.403-.047-.287-.104zm-190.833-.061c.14-.253.569-.288.569-.048 0 .117-.15.213-.331.213-.182 0-.29-.074-.238-.165zm-39.746.034c0-.081.105-.147.234-.147.128 0 .233.027.233.061s-.105.1-.233.147c-.129.048-.234.02-.234-.061zm186.313.204c.336-.242.472-.267.472-.088 0 .068-.173.164-.384.212-.32.073-.335.053-.088-.124zm7.593.205a.6.6 0 0 1 .364-.14c.121 0 .22.063.22.14 0 .076-.164.14-.365.14-.2 0-.299-.064-.22-.14zm-5.487 0c0-.077.047-.14.103-.14.057 0 .168.063.248.14.08.076.033.14-.104.14-.136 0-.247-.064-.247-.14zm-12.726-.002c-.08-.077.02-.177.22-.223.2-.046.365-.17.365-.277 0-.107.105-.194.233-.194.306 0 .303.376 0 .488-.13.048-.176.146-.103.217.073.071-.023.13-.216.13s-.416-.064-.496-.14h-.003zM369.6 3.2c0-.077.105-.14.233-.14.129 0 .234.063.234.14 0 .076-.105.14-.234.14-.128 0-.233-.064-.233-.14zm-.7 0c0-.077.104-.14.233-.14.128 0 .233.063.233.14 0 .076-.105.14-.233.14-.129 0-.234-.064-.234-.14zm42.96.217c0-.034.104-.1.233-.147.128-.048.234-.02.234.06 0 .082-.105.148-.234.148-.128 0-.233-.027-.233-.061zm-33.855.139c0-.034.105-.1.233-.147.129-.048.234-.02.234.061s-.105.147-.234.147c-.128 0-.233-.027-.233-.061zm-16.927-.078c.079-.076.342-.139.583-.139.242 0 .505.063.584.14.084.08-.158.138-.584.138-.426 0-.668-.058-.583-.139zm12.646.186c-.283-.17-.16-.317.195-.236.193.044.35.136.35.204 0 .146-.321.165-.545.032zm-15.215-.047c-.079-.076-.033-.139.103-.139s.248.063.248.14c0 .076-.047.138-.103.138-.057 0-.168-.062-.248-.139zm75.697 0c.068-.153.15-.278.184-.278.035 0 .118.125.185.278.076.174 0 .278-.185.278-.191 0-.26-.104-.184-.278zm-81.48.158c.544-.209.9-.258 1.275-.175.466.102.427.125-.362.213-.486.054-1.06.133-1.275.175-.216.042-.053-.054.363-.213zm27.38.26c-.302-.117-.295-.136.044-.137.218-.002.46.06.54.137.182.176-.127.176-.584 0zm1.868.223c0-.03.158-.09.35-.135.193-.044.35-.02.35.055 0 .074-.157.135-.35.135-.192 0-.35-.025-.35-.055zm-25.358-.109c-.066-.064.043-.154.243-.2.2-.045.305-.139.234-.207-.07-.069.046-.125.26-.125.259 0 .342.074.247.22-.078.121-.141.267-.141.325 0 .143-.692.133-.843-.013zm31.959.219c.077-.046.279-.051.447-.011.187.044.131.077-.14.084-.247.006-.385-.027-.307-.073zm-20.843-.051c0-.189.415-.306.566-.16.072.07-.026.162-.217.206-.192.044-.35.023-.35-.046zm-8.023-.074c.074-.115.294-.208.488-.208.288 0 .3.038.063.208-.16.115-.38.209-.488.209-.108 0-.137-.094-.063-.209zm37.675.426c0-.034.105-.1.233-.148.129-.047.234-.02.234.062 0 .08-.105.147-.234.147-.128 0-.233-.028-.233-.061zm-26.365-.136c-.014-.147.045-.229.123-.183.077.047.085.167.018.267-.075.111-.13.078-.142-.084h.001zm21.228.058c0-.153.095-.278.212-.278.116 0 .157.125.09.278-.068.153-.163.278-.212.278-.05 0-.09-.125-.09-.278zm-15.027.07c.075-.115.263-.21.42-.21.158 0 .287.095.287.21 0 .114-.19.208-.42.208-.279 0-.376-.07-.287-.208zm56.381-.126c-.532-.265-.873-.516-.758-.559.242-.09 2.047.85 1.854.965-.07.042-.563-.14-1.096-.406zm-6.682.334c-.08-.076-.04-.139.09-.139.128 0 .298.063.378.14.08.076.04.138-.09.138a.625.625 0 0 1-.378-.139zm-41.06-.07c.074-.114.176-.208.226-.208.051 0 .092.094.092.209 0 .114-.102.208-.226.208-.124 0-.165-.094-.092-.208zm-16.493.058c0-.08-.105-.105-.233-.057-.129.047-.234.02-.234-.062 0-.176.462-.189.895-.025.251.094.24.134-.058.202-.203.046-.37.02-.37-.058zm-1.868.012c0-.076.1-.139.22-.139s.285.063.364.14c.08.076-.019.138-.22.138-.2 0-.364-.062-.364-.139zm68.426.082c-.222-.16-.194-.189.146-.15.232.026.612.052.844.058.546.014.27.289-.29.289-.234 0-.55-.089-.7-.198zm-2.895.104c-.27-.16-.17-.324.194-.324.193 0 .35.094.35.208 0 .218-.276.276-.544.116zm-50.18 0c.161-.038.424-.038.584 0 .16.039.03.07-.292.07-.32 0-.452-.031-.291-.07zm2.16.1c0-.08.105-.147.234-.147.128 0 .233.028.233.062 0 .033-.105.1-.233.147-.128.047-.234.02-.234-.061zm-14.942 0c0-.08.105-.147.233-.147.129 0 .234.028.234.062 0 .033-.105.1-.234.147-.128.047-.233.02-.233-.061zm63.677.254c.159-.095.347-.138.42-.095.07.043-.059.12-.289.173-.333.075-.36.06-.13-.078zm-2.506-.185c0-.322.068-.35.643-.268.353.05.687.116.743.144.16.083-.288.286-.86.39-.45.08-.526.043-.526-.266zm-.778.249c-.085-.051-.155-.158-.155-.237 0-.087.108-.079.276.02.152.091.222.198.155.237-.066.04-.19.03-.276-.02zm-1.965 0c-.384-.093-.377-.465.014-.465.165 0 .316.125.336.278.019.153.015.274-.014.268l-.336-.081zm-60.673.17c-.074-.115-.286-.164-.498-.115-.244.055-.312.029-.2-.079.25-.24.56-.198.841.116.138.153.19.278.118.278-.073 0-.19-.09-.261-.2zm22.091.2c-.404-.149-.184-.322.325-.256.216.028.292.115.188.214-.112.106-.297.121-.513.042zm40.112.323c.228-.055.198-.121-.117-.263-.376-.17-.308-.19.63-.186.826.003.943.03.549.125-.276.066-.571.187-.656.27-.086.081-.28.143-.433.137-.188-.007-.18-.034.026-.083h.001zM394.93 4.31c-.08-.078-.245-.106-.364-.062-.324.12-.264.203.147.203.2 0 .298-.064.217-.142zm.118 1.733c0-.182-.281-.263-.758-.218a.202.202 0 0 1-.211-.157c-.1-.49-.077-.6.144-.693.133-.057 0-.104-.312-.105-.48-.002-.513-.031-.245-.224.261-.187.247-.243-.088-.355-.218-.072-.397-.195-.397-.272 0-.078.121-.096.27-.041.148.054.621.091 1.05.082.43-.01.78.043.78.117 0 .074.158.135.351.135.193 0 .35.062.35.139 0 .076-.104.139-.233.139-.128 0-.234.063-.234.14 0 .076.17.138.376.138.233 0 .325.077.243.204-.176.273.276.421 1.132.37.93-.054.555.137-.992.508-.997.239-1.226.256-1.226.093zm66.542.216c0-.076.047-.139.104-.139.056 0 .168.063.247.14.079.076.033.138-.103.138-.137 0-.248-.062-.248-.139zm-28.6-.204c-.744-.363-.55-.486.219-.14.519.235.928.272.714.066-.079-.077-.033-.14.103-.14.287 0 .299.038.105.337-.188.293-.318.28-1.142-.123zm-61.815.251c.16-.038.423-.038.584 0 .16.039.029.07-.292.07s-.452-.031-.292-.07zm-2.365-.162c-.103-.178-.13-.357-.06-.399.233-.139 1.34.1 1.18.255-.103.099.033.12.399.065l.554-.086-.552.169c-.466.142-.599.13-.857-.08-.284-.232-.31-.227-.39.076l-.086.324-.188-.324zm68.467.328c-.06-.036-.443-.08-.85-.099-.407-.018-.792-.113-.855-.21-.062-.098-.275-.14-.473-.095-.263.06-.354-.006-.34-.246.014-.18.071-.25.136-.154.065.096.258.174.43.174.17 0 .352.074.402.164.06.107.25.124.545.049.774-.198 1.037-.196 1.037.008 0 .108.105.196.233.196.129 0 .234.063.234.14 0 .143-.306.188-.499.073zm-70.13-.074c-.38-.097-.393-.121-.072-.13.218-.005.46.054.54.13.166.16.157.16-.467 0zm64.918.288c-.073-.071-.027-.169.104-.217.13-.048.237.01.237.13 0 .244-.14.28-.34.087zm-40.216.056c-.217-.138-.166-.194.236-.258 1.141-.183 1.547.025.568.29-.386.106-.602.097-.804-.032zm38.99.119c-.217-.338.194-.486.595-.213.213.145.545.3.738.346.192.045 0 .073-.436.06-.432-.012-.835-.1-.896-.193zm-43.12-.073c-.192-.176-.338-.54-.324-.807.013-.268.069-.409.122-.313.158.278 1.087.2 1.422-.119.168-.16.199-.253.067-.205-.13.049-.347-.032-.48-.18-.205-.229-.174-.258.214-.198.573.09.832.547.461.813-.154.111-.215.21-.136.22l.32.036c.325.036.76.24.76.355 0 .143-.88.492-1.564.621-.386.073-.599.017-.862-.223zm59.863.504c0-.133.651-.477.903-.477.407 0 .573.304.235.431-.361.137-1.138.168-1.138.046zm-11.44-.051c0-.081.104-.147.233-.147.128 0 .233.027.233.061s-.105.1-.233.147c-.129.048-.234.02-.234-.061zm7.937.127c0-.075.158-.135.35-.135.193 0 .35.024.35.054s-.157.091-.35.135c-.192.044-.35.02-.35-.054zm13.075.143c0-.077.1-.14.22-.14.121 0 .285.063.364.14.079.076-.02.14-.22.14s-.364-.064-.364-.14zm-19.846 0c-.192-.074-.245-.137-.117-.14.128-.002.076-.064-.117-.138-.3-.115-.29-.135.058-.137.225-.002.408-.069.408-.15 0-.08.105-.108.234-.061.27.1.32.766.058.763-.097-.002-.333-.063-.525-.137h.001zm-27.446-.104c-.098-.134-.162-.29-.141-.348.02-.057-.113-.104-.298-.104a.597.597 0 0 1-.482-.279c-.082-.153-.237-.278-.345-.278-.107 0-.144-.117-.08-.26.105-.242 1.393-.574 2.226-.574.365 0 1.275.522 1.176.675-.032.05.05.111.182.138.133.026.225-.005.206-.07-.132-.444.524-.608 1.52-.38.411.093.499.546.132.681-.131.048-.184.14-.119.202.065.063-.143.154-.463.202-.667.1-.783.352-.174.376.727.03-.958.229-2.076.246-.826.012-1.127-.042-1.263-.227zm-129.856.159c.078-.046.279-.051.448-.011.186.044.13.077-.142.084-.246.006-.384-.027-.306-.073zm164.54.223c0-.076.047-.139.104-.139.056 0 .168.063.247.14.079.076.033.138-.103.138-.137 0-.248-.062-.248-.139zm-.934 0c0-.076.1-.139.22-.139.122 0 .285.063.364.14.08.076-.019.138-.22.138-.2 0-.364-.062-.364-.139zm-1.167-.695c0-.077-.184-.138-.409-.137-.349.002-.357.022-.057.137.44.17.467.17.467 0zm-1.156.912a.868.868 0 0 0-.612-.124c-.183.042-.333.002-.333-.087 0-.296.477-.701.825-.701.402 0 .421-.07.116-.41-.189-.21-.134-.251.332-.251.377 0 .518.062.434.191-.132.205.129.243.724.107.202-.046.31-.14.239-.208-.072-.069-.03-.125.092-.125.37 0 .543.456.222.585-.887.355-1.155.404-1.443.262-.212-.105-.424-.088-.744.06-.354.163-.365.19-.054.125a1.78 1.78 0 0 1 .78.047c.347.116.35.15.025.343-.198.118-.295.253-.216.3.08.048.087.086.018.086-.07 0-.253-.09-.406-.2h.001zM409 8.114c.16-.038.423-.038.584 0 .16.039.029.07-.292.07s-.453-.031-.292-.07zm11.677.179c-.548-.248-.62-.777-.132-.966.567-.22 1.7.042 1.72.396.04.68-.73.957-1.587.57zm-5.957.1c-.16-.039-.292-.187-.292-.329 0-.142-.1-.295-.223-.34-.254-.094-.052-.51.323-.663.48-.196 2.075-.11 2.543.137.338.178.488.197.563.07.143-.244 1.113-.218 1.47.04.242.172.24.277-.013.555-.17.19-.422.348-.56.353-.14.006-.043.064.214.13.41.105.388.12-.19.129-.443.006-.6-.043-.486-.153.113-.11.041-.134-.22-.074-.214.049-.388.039-.388-.023 0-.155-.716-.104-1.328.094-.53.172-.92.193-1.416.074h.003zM308.491 8.4c.077-.046.279-.051.447-.011.186.044.131.077-.141.084-.246.005-.384-.027-.306-.073zm127.163-.096c-.191-.25-.195-.418-.014-.605.139-.142.255-.18.26-.085 0 .096.184.174.401.174.344 0 .337.026-.058.205-.442.199-.44.204.072.208.289.003.525.067.525.144 0 .076-.044.139-.098.139-.054 0-.261.037-.461.083-.241.055-.453-.034-.629-.263h.002zm-128.16.188c0-.081.105-.147.233-.147s.233.027.233.061-.105.1-.233.147c-.129.048-.234.02-.234-.061zm109.145.125c-.076-.073.079-.133.343-.133.564 0 .62.077.138.187-.189.044-.405.019-.48-.054zm-32.968.06c.077-.045.28-.05.448-.01.186.044.13.077-.141.084-.246.006-.384-.027-.307-.073zm-7.768-.046c0-.08.105-.147.234-.147.128 0 .233.027.233.061s-.105.1-.233.147c-.129.048-.234.02-.234-.06zm62.106.131c0-.077.088-.14.196-.14.108 0 .316-.156.462-.347.2-.26.199-.348 0-.348-.147 0-.213-.032-.145-.072.23-.138.843.092.961.36.065.148.312.27.548.27.313 0 .248.057-.238.208-.762.237-1.783.276-1.783.069h-.001zm-60.175.055c.077-.046.28-.051.448-.011.186.044.13.077-.141.084-.246.006-.384-.027-.307-.073zm35.022.14c.078-.047.28-.052.448-.012.186.044.13.077-.141.084-.246.006-.384-.027-.307-.073zm30.29-.06c0-.357.59-.501 1.074-.262.334.165.33.199-.047.363-.605.264-1.027.222-1.027-.101zm-18.888.032c-.394-.439-.31-.836.214-1.003.96-.306 1.353.313.57.898-.515.385-.53.387-.784.105zm-26.875.196c0-.03.163-.092.363-.138.207-.047.301-.024.22.055-.137.132-.583.195-.583.083zm-10.74-.072c0-.07.21-.093.467-.053s.467.097.467.126c0 .03-.21.053-.467.053s-.467-.057-.467-.126zm5.37.126c.835-.159 1.168-.159 1.168 0 0 .077-.394.133-.876.125-.781-.012-.813-.025-.292-.125zm59.185.137c-.214-.206-.014-.311.488-.253.364.042.368.065.038.227-.262.13-.411.137-.526.026zm-16.105.005c-.082-.078.016-.142.217-.142.41 0 .47.084.147.203-.12.044-.284.016-.364-.061zm8.116.47c.077-.046.279-.051.447-.011.186.044.131.077-.14.084-.247.006-.385-.027-.307-.073zm40.387 1.857c.079-.233.436-.377.942-.38.345-.003.374.046.167.276-.27.301-1.205.39-1.109.104zm-1.396.647c.077-.047.279-.052.447-.012.187.045.131.078-.14.085-.247.005-.385-.027-.307-.074zm-457.154 3.06c.077-.047.279-.052.447-.011.186.044.131.077-.141.084-.246.005-.384-.027-.306-.074zm494.345 1.861c-.313-.265-.317-.335-.033-.504.395-.236 1.423-.12 1.617.182.15.233-.418.631-.901.631-.176 0-.484-.139-.683-.309zm-496.627.309c-.308-.079-.347-.122-.117-.127.193-.004.508.053.7.127.428.164.06.164-.583 0zm472.623.603c.16-.038.423-.038.583 0 .16.039.03.07-.291.07-.321 0-.453-.031-.292-.07zm3.755.12c-.342-.024-.68-.134-.751-.244-.1-.154.087-.2.797-.2.523 0 .927.066.927.153 0 .1.23.12.642.058 1.263-.19 2.44-.23 2.283-.08-.083.08-.047.146.083.146a.623.623 0 0 0 .376-.137c.079-.076.532-.13 1.006-.119.475.011 1.113-.027 1.418-.085.392-.075.506-.059.39.054-.118.112.03.134.495.073.467-.061.566-.046.336.05-.266.111-.244.149.117.204.757.115-6.612.23-8.118.126zm-12.803 1.78c0-.174.248-.174.7 0 .284.11.25.136-.174.138-.29.001-.526-.06-.526-.137zm-458.672 0c.08-.076.25-.138.378-.138.129 0 .169.062.09.139a.624.624 0 0 1-.379.139c-.128 0-.168-.063-.089-.14zm-5.423 1.725c.077-.046.279-.051.447-.011.187.044.131.077-.14.084-.247.006-.385-.027-.307-.073zm2.038.092c0-.081.105-.147.233-.147.129 0 .234.027.234.061s-.105.1-.234.147c-.128.048-.233.02-.233-.061zm.428 1.706c-.213-.033-.452-.16-.53-.281-.124-.192.033-.208 1.194-.127 1.49.105 1.74.179 1.236.368-.35.132-1.202.15-1.9.04zm2.84.098c0-.078.323-.1.76-.05 1.063.12 1.097.185.097.185-.471 0-.856-.06-.856-.135zm473.085.387c.051-.09.217-.19.37-.22.17-.034.223.03.135.165-.163.253-.645.306-.505.055zm-6.294 2.168c.077-.046.279-.051.447-.011.187.044.131.077-.14.084-.247.006-.385-.027-.307-.073zm-465.856.077c-.251-.102-.086-.116.583-.05 1.158.116 1.345.197.448.194-.375-.002-.839-.066-1.031-.145zm-1.635.146c-.56-.107-.562-.112-.058-.125.289-.008.595-.03.68-.049.086-.02.2.043.254.14.108.192-.02.197-.876.034zm473.265 1.252c-.285-.11-.255-.136.161-.137.281-.002.576.06.656.137.184.177-.357.177-.817 0zm-463.862.055c.077-.046.279-.051.447-.011.186.044.131.077-.14.084-.247.006-.385-.027-.307-.073zm463.103.409c.16-.039.423-.039.584 0 .16.039.029.07-.292.07s-.453-.031-.292-.07zM53.53 30.099c.078-.046.28-.05.448-.01.186.044.13.077-.141.083-.247.006-.384-.027-.307-.073zm443.082.363c0-.077.047-.14.104-.14.056 0 .168.063.247.14.08.076.033.139-.103.139-.137 0-.248-.063-.248-.14zm-5.073.194c.077-.046.279-.051.448-.011.186.044.13.077-.141.084-.246.006-.384-.027-.307-.073zm-1.293-.008c.158-.038.473-.04.7-.005.227.036.098.067-.287.07-.386.002-.571-.026-.413-.064zm6.717.23c-.079-.076.071-.138.336-.138s.48.062.48.139c0 .076-.15.139-.336.139-.185 0-.401-.063-.48-.14zm-454.47.704c0-.072.096-.166.213-.209.302-.111.978.066.823.215-.172.166-1.036.16-1.036-.006zm-5.306 1.02c.077-.046.279-.05.447-.01.186.044.131.077-.141.084-.246.005-.384-.027-.306-.073zm13.182 2.358a2.21 2.21 0 0 1 .7-.005c.228.035.098.066-.287.07-.385.002-.571-.027-.413-.065zm-16.28.96c0-.157 2.76-.186 2.922-.03.085.082-.46.135-1.391.135-.843 0-1.532-.047-1.531-.105zm-26.087.994c.077-.046.279-.05.447-.01.186.044.131.077-.141.083-.246.006-.384-.026-.306-.073zm-1.828-.042c.072-.069.34-.093.597-.053.643.1.585.18-.13.18-.33 0-.54-.057-.467-.127zm-2.789-.013c-.577-.087-.475-.107.584-.113.915-.004 1.15.028.817.113-.54.139-.488.139-1.4 0zm482.084 1.168c.077-.046.279-.051.447-.01.186.044.131.076-.14.083-.247.006-.385-.027-.307-.073zm-472.746.082c-.184-.176 1.887-.27 2.769-.125.468.077.852.172.852.21 0 .11-3.505.028-3.621-.085zm11.209.559a4.07 4.07 0 0 1 .817-.12c.22 0 .178.044-.117.12a4.07 4.07 0 0 1-.817.12c-.22 0-.178-.045.117-.12zm4.836 1.64c-1.146-.18-.674-.421.614-.312.598.05 1.423.086 1.833.078.647-.012 1.362.227.844.283-.743.08-2.656.051-3.29-.049zm-15.584.049c-.225-.126-.341-.157-.26-.069.101.108-.115.156-.667.146-.92-.015-1.138-.236-.233-.236.321 0 .584-.06.584-.133 0-.128.937-.275 2.043-.322.289-.012.525-.062.525-.11 0-.05.94-.086 2.087-.083 1.19.004 2.03.061 1.955.134-.076.073.1.08.423.016.6-.118.584-.118 2.656.008.77.047 1.9.081 2.51.076.61-.005 1.11.053 1.11.128 0 .076.157.102.35.057.431-.098 1.517.052 1.517.21 0 .063-1.723.112-3.83.108-2.736-.005-3.929.042-4.18.167-.246.121-1.231.167-3.267.152-2.349-.017-2.994-.065-3.323-.25zm468.953.675c0-.076.1-.139.22-.139s.284.063.363.14c.079.076-.019.138-.22.138-.2 0-.363-.062-.363-.139zm-449.567.696c-.079-.077-.032-.14.104-.14s.247.063.247.14c0 .076-.047.139-.103.139-.057 0-.168-.063-.248-.14zm-1.167 0c-.45-.116-.449-.12.045-.13.281-.005.576.053.656.13.17.164-.058.164-.7 0zm-1.284.147c0-.081.105-.147.233-.147.129 0 .234.027.234.061s-.105.1-.234.147c-.128.048-.233.02-.233-.061zm-6.626-.035c.054-.053-.287-.059-.76-.013-.583.056-.809.035-.703-.066.203-.197 5.52-.23 5.52-.035 0 .078-.34.15-.758.161-2.119.057-3.389.04-3.3-.047zm13.63.16c0-.091-.306-.112-.817-.055-.535.06-.817.038-.817-.063 0-.087.4-.154.915-.154.503 0 1.107-.037 1.342-.081.403-.076.404-.07.023.118-.223.11-.336.24-.253.29.084.05.03.09-.12.09s-.273-.065-.273-.145zm-15.41.23c0-.029.21-.085.468-.125.257-.04.408-.017.336.053-.125.121-.803.182-.803.073zm-5.136.696c0-.03.21-.086.467-.126.257-.04.409-.016.337.053-.126.121-.804.183-.804.073zm-4.203.881c0-.068.158-.087.35-.043.193.044.351.026.351-.04 0-.065.263-.128.584-.139.32-.01.583.044.583.122 0 .084.138.073.338-.026.243-.12.457-.126.76-.021.395.137.392.147-.047.165-2.304.092-2.919.089-2.919-.018zm-6.282.018a1.542 1.542 0 0 0-.7-.055c-.295.056-.306.042-.054-.065.356-.152 1.2-.064 1.2.125 0 .15-.033.15-.446-.006zm.679.128c0-.076.184-.143.409-.149.346-.008.338-.026-.059-.122-.434-.104-.425-.116.117-.167.321-.03 1.003-.012 1.514.04.512.052 1.11.038 1.328-.032.218-.07.587-.122.82-.116.25.007.088.092-.393.21l-.817.197.766-.046c.506-.03.687 0 .535.092-.311.185-2.433.157-2.54-.034-.046-.083-.187-.151-.312-.151-.126 0-.17.056-.099.124.071.069-.036.163-.239.209-.554.127-1.03.101-1.03-.055zm32.858.187c.158-.038.473-.04.7-.005.227.035.098.066-.287.07-.385.002-.571-.027-.413-.065zm-2.261 3.158c-.187-.07-.66-.099-1.05-.064-.686.062-.69.059-.135-.085.615-.16 2.25-.058 2.47.154.172.165-.844.161-1.285-.005zm-4.79-.002c-.346-.075-.204-.12.574-.182.569-.046 1.196-.021 1.393.054.277.105.241.117-.156.052-.284-.046-.705-.025-.934.046-.23.07-.624.084-.877.03zM20.61 49.154c.078-.046.28-.051.448-.01.186.044.13.076-.141.083-.246.006-.384-.027-.307-.073zm1.572.362c-.544-.103-.549-.112-.073-.125.282-.007.577.049.656.125.08.077.112.133.072.126l-.655-.126zM6.834 51.241c.078-.047.28-.052.448-.011.186.044.13.077-.141.084-.247.005-.384-.027-.307-.073zm.579.965c.16-.038.423-.038.584 0 .16.039.029.07-.292.07s-.453-.031-.292-.07zm-3.56 1.9c-.356-.09-.216-.121.583-.127.578-.004 1.208.053 1.401.127.452.174-1.305.174-1.985 0zm-.67 2.256c-.062-.06.089-.11.336-.11.248 0 .45.05.45.11s-.151.109-.336.109c-.185 0-.388-.05-.45-.11zm13.044.526c-.403-.104-.38-.118.175-.1.353.012.642.07.642.13 0 .134-.209.126-.817-.03zM5.72 56.749c-.41-.27-.408-.278.094-.278.285 0 .453.062.375.137-.082.08.012.103.22.055.199-.045.362-.018.362.062s.289.17.642.203c.47.042.385.063-.314.078-.69.016-1.074-.056-1.379-.257zm-3.378.273c.297-.112.297-.13.004-.132-.27-.001-.28-.037-.048-.174.23-.138.328-.136.48.01.119.115.483.16.982.122.436-.033.609-.033.384 0-.225.033-.409.103-.41.155 0 .052-.39.107-.868.121-.611.02-.766-.01-.524-.102zm14.375.32c-.25-.148-2.025-.444-1.89-.314.158.153-.341.237-1.168.196a73.503 73.503 0 0 0-1.518-.055c-.747-.018-.77-.031-.276-.15.297-.07 1-.147 1.563-.168.562-.022 1.098-.085 1.19-.14.278-.166.967-.114 1.093.081.122.19 1.652.515 2.41.511.37-.002.385-.023.09-.137-.265-.102-.167-.135.41-.137.52-.001.758.064.758.207 0 .115-.164.209-.364.209-.224 0-.3-.068-.2-.174.133-.14.102-.14-.149 0-.34.188-1.67.237-1.949.072zm-1.244.019c.077-.047.279-.052.447-.011.187.044.131.077-.14.084-.247.005-.385-.027-.307-.073zm9.106.417c.077-.046.279-.051.447-.011.186.044.131.077-.14.084-.247.006-.385-.027-.307-.073zm-15.473.084c-.283-.11-.25-.135.175-.137.289-.002.525.06.525.137 0 .174-.248.174-.7 0zm-1.104.055c.077-.046.279-.051.447-.011.186.044.131.077-.141.084-.246.006-.384-.027-.306-.073zm8.517.131c.16-.039.423-.039.583 0 .16.039.03.07-.291.07-.321 0-.453-.031-.292-.07zm-3.38.008c.077-.046.278-.051.447-.01.186.044.13.077-.141.083-.247.006-.384-.027-.307-.073zm-11.853.086c-.082-.08.012-.102.22-.055.404.093.478.192.142.192a.6.6 0 0 1-.362-.137zm11.555.541c0-.11 3.52-.022 3.715.094.068.04-.74.058-1.795.04-1.056-.019-1.92-.079-1.92-.134zm-3.093.06c.16-.038.423-.038.584 0 .16.04.029.07-.292.07s-.453-.03-.292-.07zM0 64.764c0-.03.21-.086.467-.126.257-.04.409-.016.337.053-.126.122-.804.183-.804.073zm.934 2.28c-.48-.093-.502-.114-.117-.124.257-.007.625.049.817.123.41.158.125.158-.7 0zm3.269 2.78c0-.076.236-.137.525-.136.425.002.458.028.175.137-.453.174-.7.174-.7 0zm6.834 1.586c.077-.046.279-.051.447-.011.187.044.131.077-.14.084-.247.006-.385-.027-.307-.073zm439.813 3.84c0-.077.105-.14.234-.14.128 0 .233.063.233.14 0 .076-.105.139-.233.139s-.234-.063-.234-.14zm20.43.973a.623.623 0 0 1 .378-.139c.128 0 .168.063.09.14a.626.626 0 0 1-.378.138c-.129 0-.169-.062-.09-.139zm-210.833.696c-.294-.076-.337-.12-.117-.12.193 0 .56.054.818.12.294.075.337.12.116.12-.192 0-.56-.055-.817-.12zm-76.654-72.84c-.169-.041-.37-.036-.448.01-.077.046.06.08.307.073.272-.006.327-.04.14-.084zm.836.79c-.337-.321-.88-.371-.88-.081 0 .197.328.327.877.348.236.009.236-.044.005-.267h-.002zm.638.695a.603.603 0 0 0-.364-.139c-.121 0-.22.063-.22.14 0 .076.164.138.364.138.2 0 .299-.062.22-.139zm-1.051-.086c0-.194-.059-.2-.409-.04-.224.103-.452.204-.506.226-.053.022.13.04.409.04.311 0 .506-.088.506-.226zm57.553.503c.08-.076.04-.139-.09-.139a.625.625 0 0 0-.377.14c-.08.076-.04.139.089.139a.624.624 0 0 0 .378-.14zm-26.15 0c.08-.076-.078-.139-.35-.139-.272 0-.43.063-.35.14.079.076.237.139.35.139.113 0 .27-.063.35-.14zm-6.888 0c0-.076-.105-.139-.233-.139-.129 0-.234.063-.234.14 0 .076.105.139.234.139.128 0 .233-.063.233-.14zm-17.16 0a.624.624 0 0 0-.378-.139c-.129 0-.169.063-.09.14.08.076.25.139.378.139.129 0 .169-.063.09-.14zm-6.421.07c-.16-.115-.41-.207-.554-.204-.145.002-.06.096.19.208.582.263.733.261.364-.004zm27.317.209c0-.077-.105-.14-.233-.14-.129 0-.234.063-.234.14 0 .076.105.139.234.139.128 0 .233-.063.233-.14zm-12.608-.014c.268-.113.194-.127-.314-.061-.4.052-.818.015-1.05-.093-.346-.16-.353-.154-.067.063.363.275.913.31 1.431.091zm2.846.197c-.169-.04-.37-.035-.448.01-.077.047.06.08.307.074.272-.007.327-.04.14-.084zm11.863.234c0-.076-.105-.14-.233-.14-.129 0-.234.064-.234.14 0 .077.106.14.234.14s.233-.064.233-.14zm-6.77-.078c0-.033-.106-.061-.234-.061s-.234.066-.234.147c0 .081.106.109.234.062.128-.048.233-.114.233-.148zm-9.69.078c.08-.076.094-.14.033-.14s-.279-.037-.483-.084c-.273-.062-.334-.025-.228.139.163.254.464.291.678.085zm-10.015-.101c-.078-.047-.133.036-.123.182.01.162.067.195.141.084.068-.1.06-.22-.019-.266zm-6.329.518a.624.624 0 0 0-.377-.139c-.129 0-.169.063-.09.14.08.076.25.138.378.138.129 0 .169-.062.09-.139zm-1.517 0c0-.076-.112-.139-.248-.139-.135 0-.182.063-.103.14.08.076.191.138.248.138.056 0 .103-.062.103-.139zm54.084.07c-.193-.115-.423-.209-.512-.209-.09 0-.032.094.128.209.16.115.39.209.512.209s.065-.094-.128-.21zm-1.318.031c0-.072-.15-.096-.335-.054-.184.042-.37.014-.413-.062-.044-.08-.276-.094-.54-.034-.43.099-.421.112.121.191.832.121 1.167.11 1.167-.04zm-10.418-.176c.069-.107.024-.23-.099-.276-.344-.127-.264-.344.127-.344.193 0 .35-.052.35-.116 0-.248-.292-.269-.72-.05-.544.277-.642 1.175-.115 1.055.183-.042.389-.163.457-.27zm-5.257-.03c-.037-.21.014-.46.113-.555.1-.096.12-.232.046-.303-.073-.071.104-.16.395-.195.29-.037.109-.057-.405-.045-.809.018-.931.063-.915.334.01.172-.095.315-.234.318-.139.002-.016.122.273.265.29.144.526.33.526.413 0 .083.06.152.134.152.074 0 .104-.173.067-.383zm-2.886.244c.079-.076.039-.139-.09-.139a.625.625 0 0 0-.377.14c-.08.076-.04.138.089.138a.625.625 0 0 0 .378-.139zm31.937-.139c-.067-.153-.215-.278-.328-.278-.282 0-.26.242.031.35.13.047.167.155.08.238-.088.085-.048.11.092.06.136-.05.193-.217.126-.37zm-31.777.6c-.168-.04-.37-.034-.447.012-.078.046.06.079.306.073.272-.007.327-.04.141-.084zm-4.248-.67c-.125-.09-.159-.205-.074-.255.084-.05.031-.092-.119-.092s-.272.087-.272.193c0 .118-.321.216-.818.25-.58.041-.817.003-.817-.131 0-.104-.095-.154-.211-.111-.122.044-.097.223.058.419.206.26.395.323.795.263.307-.046.526-.015.526.075 0 .084.26.018.58-.147.4-.208.51-.351.352-.464zm10.392.766c.079-.077.04-.14-.086-.14-.127 0-.27-.109-.318-.243-.06-.168-.127-.125-.218.14-.13.382.302.551.621.243zm-1.285-.014c0-.069-.13-.126-.291-.127-.188-.002-.206-.039-.05-.105.293-.124.308-.867.017-.867-.114 0-.336-.104-.492-.231a.814.814 0 0 0-.694-.138c-.334.077-.356.133-.122.301.159.114.226.207.15.207-.078 0-.044.15.073.335.184.289.135.346-.356.42-.975.146-.625.342.598.337.642-.003 1.167-.062 1.167-.132zm-13.948.061c-.19-.046-.22-.15-.089-.302.11-.127.172-.342.136-.475-.036-.134.043-.244.175-.244.145 0 .125-.084-.049-.208-.237-.17-.224-.21.069-.21.197 0 .403.08.457.175.077.135.184.131.487-.018.243-.12.652-.16 1.089-.107.824.098.86.042.233-.36-.257-.164-.467-.224-.467-.133s-.164.166-.364.166c-.2 0-.307-.055-.238-.121.26-.252-1.845-.097-2.202.16-.448.326-1.161.19-.995-.187.14-.321-.088-.336-1.136-.072l-.785.198.657.15c.362.082.762.15.89.15.127 0 .182.048.122.106-.195.188.443.568.911.544.547-.029.786.575.3.758-.209.079-.08.115.388.109.386-.005.57-.04.41-.079zm-24.81-.047c0-.077-.11-.14-.247-.14-.136 0-.182.063-.103.14.08.076.191.139.248.139.056 0 .103-.063.103-.14zm31.257.15c.242-.009.256-.057.06-.198-.316-.227-.114-.37.523-.37.369 0 .412-.036.194-.166-.154-.092-.28-.273-.28-.401 0-.13-.221-.269-.491-.311-.418-.065-.475-.026-.383.262.06.186.006.338-.12.338-.125 0-.171.13-.102.287.077.176-.004.316-.206.363-.473.108-.412.309.076.253.225-.026.553-.052.73-.057zm-1.37-.089c0-.034-.106-.061-.234-.061-.129 0-.234.066-.234.147 0 .081.105.109.234.061.128-.047.233-.113.233-.147zm-10.46.09c.596-.082.903-.07.987.039.066.087.097.001.068-.19-.038-.248.13-.417.59-.59.807-.302.842-.558.061-.441-.32.047-1.052.097-1.628.11-1.22.027-1.748.246-1.326.55.151.108.21.298.129.423-.166.257-.077.265 1.12.1zm-8.22-.077c0-.125.138-.173.352-.124.488.111 1.566-.068 1.396-.232-.077-.075-.005-.14.165-.146.235-.009.238-.028.014-.082-.587-.14-.3-.445.409-.433.635.01 1.054.247.438.247-.181 0-.172.065.029.21.16.114.422.208.583.208.162 0 .424-.094.584-.209.238-.17.222-.209-.088-.209-.208 0-.379-.093-.379-.208 0-.115.08-.209.175-.209.316 0 1.487.974 1.341 1.115-.155.15-.112.16.968.214.642.032.729-.004.7-.297-.024-.25-.134-.314-.44-.256-.3.057-.41 0-.41-.21 0-.158-.097-.288-.216-.288-.12 0-.384-.1-.588-.221a2.217 2.217 0 0 0-.776-.26c-.247-.022-.379-.139-.34-.3.057-.229.035-.233-.169-.037-.151.146-.438.201-.819.158-.322-.037-.771-.018-.998.041-.521.137-.68.163-1.113.185-.192.01-.35.083-.35.164s.088.115.194.076c.107-.04.195.017.195.125s-.135.227-.3.265c-.187.043-.25-.008-.169-.133.085-.132-.02-.201-.304-.2-.675.004-1.106.218-.875.435.213.2.25.274.296.606.038.27.496.274.496.005zm46.593.077c-.269-.259-.56-.166-.427.136.083.188.206.24.355.151.126-.074.158-.204.072-.287zm-32.817.266c0-.076-.105-.139-.233-.139-.129 0-.234.063-.234.14 0 .076.105.138.234.138.128 0 .233-.062.233-.139zm-23.348.008c0-.072-.088-.163-.194-.202-.107-.04-.195.02-.195.13a.2.2 0 0 0 .195.203c.106 0 .194-.059.194-.13zm39.925.131c0-.076-.105-.139-.233-.139-.129 0-.234.063-.234.14 0 .076.105.138.234.138.128 0 .233-.062.233-.139zm-13.711-.13c.138-.315.004-.427-.512-.424-.296.002-.307.026-.052.122.22.083.238.148.058.214-.363.134-.322.357.064.357.178 0 .377-.121.442-.27zm25.416.109c.488-.335.525-.396.238-.396-.329 0-1.205.509-1.043.605.234.14.336.113.805-.209zm-17.962-.225c.414-.507.212-1.33-.28-1.143-.193.073-.245.135-.117.137.133.003.121.049-.027.107-.356.14-.646.728-.36.728.126 0 .2.155.166.344-.077.418.199.34.618-.173zm73.777.569c-.169-.04-.37-.036-.448.01-.077.047.06.08.307.074.272-.007.327-.04.14-.084zm-79.724-.002a2.223 2.223 0 0 0-.7.005c-.158.038.028.067.413.064.385-.003.515-.034.287-.07v.001zm4.298.111c-.269-.101-.269-.13 0-.187.175-.037.254-.109.176-.16-.078-.05-.317-.051-.53-.002-.303.069-.33.132-.122.281.147.106.386.192.53.19.155-.001.132-.051-.054-.122zm-15.85-.05a.613.613 0 0 1-.059-.251c0-.081-.107-.108-.237-.06s-.177.146-.103.217c.074.071.023.13-.113.13s-.247-.063-.247-.14c0-.076-.26-.139-.577-.139-.389 0-.537.062-.455.189.127.196 1.9.25 1.79.055zm7.646.097c0-.034-.105-.062-.233-.062-.129 0-.234.067-.234.148 0 .08.105.108.234.061.128-.047.233-.114.233-.147zm-1.712-.141a.197.197 0 0 0-.195-.199c-.107 0-.194-.118-.194-.263 0-.145-.158-.3-.35-.343-.404-.093-.479.125-.092.268.184.068.177.125-.025.2-.441.161-.066.679.436.6.23-.035.42-.154.42-.263zm180.602.402c-.169-.04-.37-.036-.448.01-.077.047.06.08.307.074.272-.007.327-.04.14-.084zm-155.45-.125c.255-.396.134-.55-.216-.275-.189.149-.343.32-.343.383 0 .199.412.12.559-.108zm-41.267-.616c-.1-.38-.063-.408.456-.33.48.072.54.045.403-.174-.142-.225-.114-.235.217-.075.43.208.296.58-.21.58-.228 0-.306.121-.248.383.064.284.231.393.65.421.493.034.513.02.157-.111-.438-.16-.562-.553-.175-.553.128 0 .233.067.233.148 0 .088.217.112.526.06.311-.052.411-.04.246.03-.463.194-.006.416.63.307.32-.055.461-.106.312-.114-.293-.015-.293-.256 0-.535.116-.112.05-.174-.182-.174-.2 0-.364.062-.364.139 0 .235-.33.146-.758-.204-.37-.303-.374-.354-.041-.552.212-.126.254-.218.102-.218-.145 0-.2-.062-.12-.139.095-.092-.062-.092-.469 0-.79.18-.815.178-.815-.07 0-.114-.105-.208-.233-.208-.129 0-.234.081-.234.18 0 .127-.384.18-1.284.176-.91-.002-1.284-.058-1.284-.19 0-.122.16-.155.467-.097.268.051.467.025.467-.06 0-.081-.204-.148-.454-.148-.6 0-.83-.24-.308-.321.251-.04.156-.07-.244-.08-.414-.01-.599.039-.5.133.17.165-.471.575-1.14.727-.618.14-.339.448.391.43.341-.008.62.001.62.02 0 .02-.367.166-.817.324-.908.32-1.064.575-.35.575.32 0 .467-.093.467-.295 0-.25.054-.268.36-.117.2.098.312.255.252.349-.073.112.049.146.352.098.279-.043.413-.15.337-.267-.07-.108.036-.233.234-.278.198-.045.303-.17.233-.278-.174-.271.316-.35 1.15-.186.685.135.686.137.059.089-.813-.063-.828.095-.028.311.337.092.546.208.463.257-.083.05-.263.023-.4-.059-.285-.169-1.144-.076-1.144.123 0 .073.195.096.434.05.25-.047.558.008.729.13.24.172.235.213-.026.216-.213.003-.168.074.136.21.404.182.48.182.656-.006.11-.117.15-.399.09-.627h-.001zm35.338.767c0-.115-.111-.209-.247-.209s-.187.058-.114.129c.073.07-.052.157-.278.192-.313.049-.286.068.114.08.323.01.525-.064.525-.192zm-19.737.118c-.462-.201-.847-.19-.97.03-.039.071.262.137.67.146.684.015.707.002.3-.176zm-15.694.137a1.488 1.488 0 0 0-.583 0c-.16.039-.03.07.292.07.32 0 .452-.031.291-.07zm-1.225-.038c0-.072-.088-.164-.195-.203-.107-.04-.194.02-.194.13a.2.2 0 0 0 .194.203c.107 0 .195-.058.195-.13zm227.293.13c-.079-.076-.19-.139-.247-.139-.057 0-.104.063-.104.14 0 .076.112.139.247.139.137 0 .183-.063.104-.14zm-260.573.009c.075-.072-.077-.121-.336-.11-.26.012-.472.07-.472.131 0 .154.644.137.808-.021zm259.332.175c-.168-.04-.37-.036-.447.01-.077.047.06.08.306.074.272-.007.328-.04.141-.084zm-6.58-.044c0-.077-.185-.139-.41-.137-.349.002-.357.021-.057.137.44.17.467.17.467 0zm-3.503.085c0-.029-.21-.086-.467-.126-.257-.04-.409-.016-.337.054.126.12.804.182.804.072zm-4.11-.166c.194-.303.18-.337-.132-.337-.15 0-.203.041-.119.092.085.05.036.175-.106.278-.163.117-.172.187-.023.187.13 0 .3-.1.379-.22zm-19.471.08c0-.076-.112-.139-.248-.139s-.182.063-.103.14c.08.076.19.139.247.139.057 0 .104-.063.104-.14zM213.4 9.544c0-.107-.158-.23-.35-.274-.238-.054-.35.007-.35.194 0 .15.157.274.35.274.192 0 .35-.088.35-.194zm7.355.194c-.08-.077-.191-.14-.248-.14-.056 0-.103.063-.103.14 0 .076.112.139.248.139s.182-.063.103-.14zm-6.061-.13c-.085-.082-.332-.147-.549-.144-.347.003-.34.03.055.207.48.216.748.182.494-.063zm-2.34-.14c-.085-.16-.245-.258-.356-.217a.36.36 0 0 1-.343-.063c-.078-.076.145-.18.496-.233.618-.092.622-.1.126-.208-.281-.062-.511-.209-.511-.326 0-.236-.128-.248-.818-.08-.428.106-.433.123-.058.214.47.115.55.57.117.673-.174.042-.128.075.117.081.224.006.408.074.408.15 0 .077.158.14.35.14.193 0 .35.073.35.162 0 .09.063.125.139.08.076-.045.068-.213-.017-.373zm205.204.464c.503-.115.227-.336-.402-.322-.281.006-.38.042-.218.081.161.039.234.128.161.198-.154.148-.047.158.46.043zm-217.663-.138c.43-.159-.295-.613-.98-.613-.725 0-.94.23-.342.367.192.044.286.14.21.214-.077.073-.283.1-.459.06-.175-.04-.39-.003-.479.082-.113.11.135.126.846.058.553-.052 1.095-.128 1.204-.168zm-3.656-.613c-.08-.076-.033-.139.103-.139s.247.063.247.14c0 .076-.046.138-.103.138-.056 0-.167-.062-.247-.139zm.397.728c-.237-.047-.22-.137.082-.41.323-.294.334-.38.068-.538-.36-.215-1.442-.107-1.206.12.094.092.007.114-.23.06a.818.818 0 0 0-.701.184c-.465.396-.669.168-.265-.297.304-.35.303-.386-.009-.315-.193.044-.298.132-.233.195.066.063-.083.152-.33.2-.246.046-.512.182-.59.303-.096.15-.037.195.193.142.183-.041.697.035 1.143.17a6.622 6.622 0 0 0 1.596.247c.432 0 .649-.028.482-.06zm-2.732-.032c.183-.176-.126-.176-.583 0-.302.116-.296.135.044.137.218.001.46-.06.54-.137zm-1.128-.377c0-.221-.438-.234-.792-.023-.194.115-.193.2.005.325.3.191.788.004.788-.302h-.001zm23.9.418c.309.048.417-.006.393-.196-.018-.144-.142-.264-.275-.265-.133-.001-.084-.062.108-.137.311-.12.311-.135 0-.139-.3-.003-.302-.022-.015-.13.278-.105.283-.164.03-.346a1.358 1.358 0 0 0-.674-.22c-.286 0-.306.038-.088.168.352.21.368.438.022.31-.174-.064-.207.002-.101.2.106.2.057.297-.15.299-.229.001-.218.04.042.15.274.115.21.134-.292.086-.71-.067-.7-.072-.502.234.11.171.24.186.608.069.257-.082.66-.12.894-.083zm-12.849.098c0-.077-.164-.14-.364-.14-.2 0-.299.063-.22.14.08.076.244.139.365.139.12 0 .22-.063.22-.14zm10.974.139c0-.077-.158-.14-.35-.14-.193 0-.35.063-.35.14 0 .076.157.139.35.139.192 0 .35-.063.35-.14zm-1.816.061c-.287-.12-.65-.169-.809-.11-.196.072-.103.137.292.203.949.157 1.065.136.517-.093zm-58.189.03c0-.102.263-.257.584-.344.575-.156.839-.72.337-.72-.136 0-.173.071-.081.16.1.097.064.123-.092.065-.143-.052-.527-.055-.854-.006-.593.088-.744.36-.452.812.172.268.558.291.558.034zm208.075.231c-.168-.04-.37-.035-.447.011-.078.046.06.08.306.073.272-.006.327-.04.141-.084zm-142.988-.183c-.16-.153-.45-.28-.644-.28-.313-.003-.313-.02-.004-.152.282-.12.248-.135-.171-.08-.443.057-.487.03-.296-.183.185-.207.148-.24-.21-.183-.286.044-.398.155-.325.321.061.14-.03.282-.202.318-.173.035-.022.042.335.015.431-.032.78.043 1.044.227.514.358.847.356.471-.003h.002zm-6.425.325a1.488 1.488 0 0 0-.583 0c-.16.039-.03.07.291.07.322 0 .453-.031.292-.07zm-3.865-.414c-.082-.049-.093-.144-.023-.21.149-.145.561-.02.561.168 0 .15-.316.174-.538.042zm-.247.298c-.15-.234-.111-.245.415-.125.202.046.31.14.24.207-.07.068.035.086.233.04.199-.045.31-.132.246-.193-.064-.062.087-.08.336-.042.754.118.314-.473-.475-.636-.858-.179-.88-.324-.034-.224.631.074.632.073.074-.072a2.659 2.659 0 0 0-1.2-.016c-.426.089-.716.082-.888-.02-.302-.18-.424-.127-.532.237-.058.191.087.293.503.354.506.074.527.098.16.182-.443.101-.336.379.145.375.167-.002.139-.056-.072-.137-.3-.115-.29-.135.058-.137.225-.001.41.092.41.207 0 .114.115.208.258.208.142 0 .198-.094.124-.208zm-3.571-.008c-.11-.17-.02-.198.416-.133.409.06.636.003.864-.217.191-.184.207-.26.042-.2-.158.059-.318-.02-.394-.194-.07-.16-.195-.29-.276-.29-.295.004-.687.21-.651.342.02.074-.227.214-.548.31-.448.136-.486.177-.161.179.232.001.363.059.29.129-.11.106.013.173.506.279.028.006-.013-.086-.088-.205zm-50.701.12c-.169-.04-.37-.034-.448.012-.077.046.06.08.307.073.272-.007.327-.04.14-.084zm62.76.1c.225-.085.266-.175.117-.256-.14-.075-.392-.022-.64.134-.44.277-.1.356.523.122zm-6.068-.146c0-.06-.21-.077-.467-.037s-.467.122-.467.182.21.077.467.037c.256-.04.467-.122.467-.182zm-55.675.152c-.23-.222-.6-.041-.436.212.09.14.217.167.366.078.126-.075.157-.206.07-.29zm-4.096.272c0-.074-.158-.098-.35-.054-.193.044-.35.104-.35.135 0 .03.157.054.35.054.192 0 .35-.06.35-.135zm-1.401-.004c-.284-.109-.253-.135.168-.137.345-.001.476-.066.393-.195-.076-.118-.315-.164-.616-.117-.386.06-.46.028-.342-.154.197-.306.032-.292-.537.047-.257.153-.355.278-.217.278.138 0 .408.094.6.209.193.115.474.207.626.206.161-.001.13-.058-.075-.137zm66.775.225c0-.03-.31-.081-.688-.114-.378-.033-.635-.009-.57.054.116.111 1.258.166 1.258.06zm-63.74-.094c0-.08-.105-.108-.233-.061-.129.047-.234.113-.234.147 0 .034.105.062.234.062.128 0 .233-.067.233-.148zm-11.373-.13c-.067-.154-.205-.279-.306-.279-.102 0-.13.125-.063.278.068.153.206.279.307.279s.13-.126.062-.279zm6.703.905c0-.037-.179-.192-.397-.345-.266-.185-.452-.225-.56-.121-.088.085-.487.162-.885.17-.716.016-.873.09-.57.271.177.106 2.412.129 2.412.025zm331.586.39c-.168-.04-.37-.035-.447.011-.078.047.06.08.306.073.272-.006.327-.04.141-.084zm-3.487 2.368a1.488 1.488 0 0 0-.584 0c-.16.038-.03.07.292.07.32 0 .452-.032.292-.07zm14.694 3.335c-.168-.04-.37-.035-.447.011-.078.046.06.08.306.073.272-.006.327-.04.141-.084zm3.736 5.564c-.169-.04-.37-.036-.448.01-.077.047.061.08.307.074.272-.007.327-.04.14-.084zm-.934 0c-.169-.04-.37-.036-.447.01-.078.047.06.08.306.074.272-.007.327-.04.141-.084zm-3.97 0c-.168-.04-.37-.036-.447.01-.077.047.061.08.307.074.272-.007.327-.04.14-.084zm4.904.278c-.169-.04-.37-.035-.448.01-.077.047.061.08.307.074.272-.007.327-.04.14-.084zm-456.03 4.963c0-.076-.106-.139-.234-.139-.129 0-.234.063-.234.14 0 .076.105.138.234.138.128 0 .233-.062.233-.139zm454.118 7.648c.193-.014-.06-.083-.56-.153-.937-.131-1.218-.096-.99.123.117.113.35.117 1.55.03zm1.551.21c.311-.185.297-.208-.134-.208-.274 0-.483.09-.483.209 0 .115.06.209.134.209.073 0 .29-.094.483-.21zm-7.577.393c-.169-.04-.37-.036-.448.01-.077.047.06.08.306.074.272-.007.328-.04.142-.084zm-458.558.187c-.35-.093-.601-.093-.757 0-.156.093.018.14.523.14.699 0 .717-.011.234-.14zm-4.114-.027c-.249-.112-.558-.204-.686-.204-.129 0-.03.092.22.204.249.112.558.204.686.204.129 0 .03-.092-.22-.204zm-4.04.112c-.418-.03-1.101-.03-1.519 0-.417.031-.075.056.76.056.834 0 1.175-.025.758-.056zm2.042.016c0-.03-.216-.054-.48-.054-.265 0-.42.06-.343.133.124.12.823.053.823-.079zm18.85.962a2.223 2.223 0 0 0-.701.005c-.158.038.027.067.413.064.385-.002.514-.034.287-.069zm435.78 1.531c-.169-.04-.37-.035-.448.011-.077.047.061.08.307.074.272-.007.327-.04.14-.085zm-433.383.663c.49-.017.522-.041.198-.154-.43-.149-2.585-.02-2.414.145.06.058.451.087.87.067a99.265 99.265 0 0 1 1.346-.058zm441.978.769c0-.132-.699-.199-.824-.079-.075.074.08.133.343.133.265 0 .48-.024.48-.054zm-1.167.193c0-.076-.158-.139-.35-.139-.193 0-.35.063-.35.14 0 .076.157.139.35.139.192 0 .35-.063.35-.14zm-443.146.549c0-.081-.105-.109-.233-.062-.129.048-.234.114-.234.148 0 .033.105.06.233.06.129 0 .234-.065.234-.146zm-1.727-.233c-.077-.046-.133.036-.122.183.01.162.066.195.14.084.068-.1.06-.22-.018-.267zm442.13.566a1.488 1.488 0 0 0-.585 0c-.16.039-.029.07.292.07s.453-.031.292-.07zm-449.976.231c0-.076-.184-.138-.408-.137-.35.003-.358.022-.059.137.441.17.467.17.467 0zm-4.377.047a1.488 1.488 0 0 0-.584 0c-.16.039-.03.07.292.07.32 0 .452-.031.292-.07zm13.994.276c-.169-.04-.37-.036-.448.01-.077.047.06.08.307.074.272-.007.327-.04.14-.084zm-3.254.002a1.488 1.488 0 0 0-.584 0c-.16.039-.03.07.292.07.32 0 .452-.031.292-.07zm-2.51-.047c-.08-.077-.307-.14-.506-.14-.212 0-.31-.079-.237-.192.086-.134-.01-.172-.317-.124-.36.056-.386.102-.141.247a2.5 2.5 0 0 0 .75.247c.248.038.483.076.523.085.04.009.007-.047-.072-.123zm469.003.186a1.488 1.488 0 0 0-.584 0c-.16.039-.029.07.292.07s.453-.031.292-.07zm-482.195.092c-.835-.16-1.167-.16-1.167 0 0 .077.394.133.875.125.782-.012.813-.026.292-.125zm7.466.066c-.215-.154-1.863-.107-1.862.054 0 .049.467.09 1.036.092.714.003.97-.043.826-.146zm12.103.082c.058-.104-.03-.157-.205-.122-.168.034-.352.143-.408.244-.059.104.029.156.204.121.169-.033.352-.143.409-.243zm-.993.117c.06-.059-.017-.153-.172-.21-.155-.057-.323-.03-.373.06-.05.09-.306.163-.568.163-.397 0-.428-.035-.185-.208.249-.18.177-.207-.497-.198-.433.007-.656.043-.496.081.46.11.342.3-.233.37-.29.036.136.061.944.057.808-.004 1.519-.057 1.58-.115zm-13.99-.056c-.389-.232-.962-.254-1.667-.063-.339.091-.233.104.381.047.503-.047.913-.017 1.006.073a.652.652 0 0 0 .394.151c.13 0 .079-.094-.114-.208zm10.302.155c-.223-.1-.336-.224-.253-.273.084-.05.03-.09-.12-.09-.294 0-.372.31-.117.463.086.05.322.09.525.088.32-.003.316-.029-.035-.188zm-1.915-.317c-.44-.09-1.306-.134-1.925-.095-1.3.08-2.309.145-2.643.17-.128.01-.233.067-.233.128s.41.108.91.105c.501-.004.853-.064.781-.133-.074-.072.236-.091.72-.044.467.045.91.022.986-.05.076-.073.237-.096.359-.051.121.045.16.14.086.21-.073.072-.029.13.1.13a.625.625 0 0 0 .377-.139c.235-.226.582-.158.426.084-.125.194-.08.199.357.036.488-.181.48-.19-.3-.35h-.001zm-2 .37c-.457-.176-.766-.176-.583 0 .08.077.322.138.54.137.34-.002.345-.02.044-.137zm-7.193.044c-.169-.04-.37-.035-.448.011-.077.047.06.08.306.073.272-.006.328-.04.142-.084zm-8.172 0c-.169-.04-.37-.035-.448.011-.077.047.06.08.307.073.272-.006.327-.04.14-.084zm3.268.14c-.168-.04-.37-.036-.447.01-.078.047.06.08.306.074.272-.007.328-.04.141-.084zm.424 2.103c0-.034-.105-.061-.234-.061-.128 0-.233.066-.233.147 0 .081.105.109.233.061.129-.047.234-.113.234-.147zm476.3 1.052c0-.077-.105-.14-.234-.14-.128 0-.234.063-.234.14 0 .076.105.139.234.139.128 0 .233-.063.233-.14zM37.166 50.117c-.168-.04-.37-.035-.447.01-.078.047.06.08.306.074.272-.007.327-.04.141-.084zm454.776.234c0-.077-.184-.138-.409-.137-.349.002-.357.022-.058.137.441.17.467.17.467 0zm-.7.25c0-.142-.961-.14-1.34.003-.17.064.043.109.526.109.447 0 .814-.05.814-.112zm-469.019.211c-.168-.04-.37-.035-.447.011-.078.046.06.08.306.073.272-.006.328-.04.141-.084zm467.384.18c0-.03-.158-.091-.35-.135-.193-.044-.35-.02-.35.055 0 .074.157.134.35.134.192 0 .35-.024.35-.054zm-472.447-.085c.08-.077-.094-.138-.395-.137-.434.002-.47.029-.189.137.435.168.41.168.584 0zm473.295.235c.223.051.28.004.18-.15-.2-.312-.497-.28-.815.09-.215.248-.21.279.021.15.16-.09.437-.13.615-.09zM15.542 53.277c-.41-.087-1.533-.035-1.533.072 0 .024.446.04.992.035.661-.007.842-.043.541-.107zm-3.168.412c.193-.074.246-.135.117-.135-.128 0-.39.06-.583.135-.193.074-.246.135-.117.135.128 0 .39-.06.583-.135zm15.41 2.643c0-.077-.105-.14-.233-.14-.129 0-.234.063-.234.14 0 .076.105.139.234.139.128 0 .233-.063.233-.14zm-5.837 3.956c0-.034-.164-.062-.364-.062-.2 0-.298.064-.217.142.133.128.581.067.581-.08zm9.068.982c-.064-.038-.397-.083-.74-.1-.343-.017-.623-.08-.623-.14 0-.06-.088-.108-.195-.108-.106 0-.194.094-.194.209 0 .15.26.208.934.208.513 0 .881-.031.818-.069zm-3.348.208c-.079-.076-.29-.139-.467-.139-.177 0-.387.063-.467.14-.082.078.12.138.467.138.349 0 .55-.06.467-.139zm-6.07.696c.086-.083-.168-.134-.628-.125-.727.013-.738.02-.19.125.322.061.605.117.629.125.025.007.11-.049.189-.125zm-3.035.695c-.08-.076-.19-.139-.248-.139-.056 0-.103.063-.103.14 0 .076.112.138.248.138s.182-.062.103-.139zm1.4.14c-.079-.077-.19-.14-.247-.14-.056 0-.103.063-.103.14 0 .076.112.138.248.138s.182-.062.103-.139zm-12.637 3.17c-.16-.155-.788-.139-.788.02 0 .072.203.121.451.11.248-.011.4-.07.337-.13zm.19.35c-.168-.04-.37-.034-.447.012-.078.046.06.079.306.073.272-.007.327-.04.141-.084zm-1.678.366c0-.081-.105-.109-.233-.062-.129.048-.234.114-.234.148 0 .033.105.061.234.061.128 0 .233-.066.233-.147zm5.414.747c-.169-.04-.37-.035-.448.011-.077.047.06.08.307.073.272-.006.327-.04.14-.084zm-.978-.044c0-.076-.216-.139-.48-.139-.265 0-.416.063-.337.14.08.076.296.138.48.138.186 0 .337-.062.337-.139zm-2.451.696c-.08-.077-.296-.14-.481-.14s-.337.063-.337.14c0 .076.217.139.481.139.265 0 .416-.063.337-.14zm1.4.695c-.079-.076-.289-.139-.466-.139-.178 0-.388.063-.467.14-.083.079.118.138.467.138.348 0 .549-.06.466-.139zm314.502 9.872c.096-.092-.313-.134-1.158-.118-1.054.021-1.41-.032-1.842-.274-.516-.289-.999-.41-.775-.195.06.057-.348.092-.904.078-.59-.015-1.117.05-1.262.153-.19.137-.536.148-1.475.044a44.58 44.58 0 0 0-2.816-.23c-.104-.006-.124-.073-.044-.15.079-.076-.117-.198-.437-.27-.762-.173-1.556-.584-1.406-.728.065-.063-.051-.114-.259-.114-.208 0-.313.062-.233.139.079.076-.014.139-.207.139-.193 0-.537.188-.765.417-.431.435-1.247.571-1.247.208 0-.215-.06-.207-1.342.189-.294.09-.525.104-.525.03 0-.144-1.678-.027-1.868.13-.157.13-.934.12-.934-.012 0-.057.131-.136.292-.175.174-.042.127-.074-.117-.08-.225-.006-.409.047-.409.118 0 .283-1.287.216-1.82-.095-.327-.19-.828-.314-1.284-.316-.411-.002-1.193-.123-1.737-.27-.862-.233-1.032-.242-1.326-.067-.185.11-.456.201-.6.201-.146 0-.2.063-.12.14.083.08-.134.137-.512.136-.51-.002-.578-.032-.306-.137.362-.14.183-.19-.525-.146-.225.013-.409-.067-.409-.178 0-.208-.475-.371-1.083-.371-.19 0-.296.047-.237.104.06.057-.779.082-1.864.055-1.706-.043-2.025-.014-2.37.215-.417.276-1.45.4-1.45.173 0-.22-.451-.144-.871.148-.22.153-.56.277-.757.276-.31-.002-.312-.019-.012-.131.294-.111.286-.143-.059-.222-.22-.05-.402-.173-.402-.272 0-.099-.394-.302-.875-.45-.84-.26-.898-.261-1.46-.025-.32.136-1.161.286-1.867.335-.924.063-1.186.047-.934-.057.3-.124.289-.145-.074-.147-.48-.003-1.37.25-1.59.45-.08.074-.377.09-.66.037-.282-.054-.46-.13-.393-.17.32-.19-.724-.574-1.487-.546-.449.017-1.12-.057-1.49-.163-.549-.157-.776-.16-1.222-.019a1.778 1.778 0 0 1-1.06.039c-.401-.107-.612-.078-.961.13a1.654 1.654 0 0 1-1.01.203c-.308-.035-.56-.01-.56.056 0 .19-.34.14-.84-.124-.546-.287-1.028-.369-1.028-.173 0 .076-.154.139-.343.139-.188 0-.292.078-.23.174.068.107-.108.18-.46.193-.314.01-.622-.06-.683-.155-.071-.11-.46-.16-1.048-.135-.638.027-.976-.023-1.062-.156-.097-.151-.267-.165-.738-.058-.336.076-.734.092-.884.034-.15-.057-.797-.106-1.44-.108-.642-.003-1.406-.055-1.698-.116-.37-.078-.512-.06-.467.055.15.39-.547.266-.785-.14-.184-.315-.44-.458-.925-.516-.368-.044-.613-.135-.543-.202.07-.067-.037-.122-.237-.122-.2 0-.364-.05-.364-.109 0-.06-.51-.122-1.13-.138-1-.026-1.162.01-1.394.314-.291.38-1.293.598-1.74.378-.419-.206-1.571-.047-1.415.195.088.137-.06.194-.497.194-.343 0-.562-.058-.487-.13.303-.292-2.498-.79-3.348-.595-.275.063-.254.1.105.184.42.097.415.105-.057.114-.734.015-1.265-.135-1.088-.306.098-.095.006-.115-.254-.055-.225.051-.626.002-.898-.112-.345-.144-.576-.162-.782-.06-.16.079-.64.148-1.066.153-.427.005-.88.057-1.009.114-.566.254-1.785.3-2.188.084-.43-.233-1.866-.268-2.774-.069-.545.12-1.692-.098-1.692-.32 0-.066-.256-.081-.57-.034a1.613 1.613 0 0 1-1.095-.206c-.288-.16-.616-.292-.728-.292-.111 0-.128-.072-.036-.16.192-.185-.266-.05-.866.255-.244.125-1.142.208-2.568.237-1.205.025-2.708.12-3.34.21-.91.131-1.185.13-1.33-.01-.1-.097-.254-.133-.342-.08-.22.131-1.032-.145-1.032-.352 0-.093-.263-.17-.584-.17-.321 0-.584.041-.584.09 0 .193-1.242.273-1.437.093-.16-.149-.235-.147-.404.01a.502.502 0 0 1-.467.096.916.916 0 0 0-.552.016c-.573.218-1.9.444-2.124.361-.126-.046-.55-.099-.942-.117-.392-.019-.742-.087-.779-.152-.095-.17-4.404-.13-4.774.045-.48.226-1.55.341-1.712.185-.08-.076-.349-.14-.598-.14-.25 0-.453-.062-.453-.138 0-.077-.42-.14-.934-.14s-.934.063-.934.14c0 .076-.12.139-.266.139-.146 0-.383.09-.525.2-.415.322-1.423.408-1.844.158-.202-.12-.48-.22-.617-.22s-.25-.046-.25-.103c0-.058-.307-.117-.68-.133a2.231 2.231 0 0 0-1.284.332c-.332.198-.604.295-.604.214 0-.132-1.785-.726-2.183-.726-.093 0-.48.19-.86.422-.381.232-.693.353-.693.268 0-.087-.191-.117-.447-.068-.246.046-.506.028-.577-.04-.173-.167-2.754-.183-3.187-.02-.188.07-.257.13-.153.13.104.003.126.063.05.137-.087.084-.374.076-.773-.022-.348-.085-1.579-.177-2.735-.203-1.155-.027-2.416-.06-2.801-.075a14.834 14.834 0 0 0-1.653.067c-.762.076-1.048.041-1.433-.172-.517-.287-1.467-.246-1.467.062 0 .226-1.157.361-1.675.196-.218-.07-.672-.126-1.009-.126-.349 0-.55-.06-.468-.14.08-.076.021-.138-.128-.138-.15 0-.212-.094-.138-.209.074-.115.044-.208-.067-.208-.11 0-.261.093-.335.208-.074.115-.29.209-.48.209s-.43.088-.533.195c-.295.31-.768.3-2.612-.045-1.333-.25-2.06-.308-3.2-.254-.843.04-1.508.014-1.55-.062-.04-.073-.366.028-.723.225-.675.373-1.09.457-1.09.22 0-.077-.159-.14-.351-.14-.193 0-.35-.055-.35-.123 0-.148-1.197-.108-1.639.055-.173.064-.758.124-1.3.133-.542.01-1.143.095-1.336.19-.458.227-1.504.07-1.811-.272-.17-.19-.392-.24-.786-.182-.302.045-.619.015-.705-.068-.215-.208-1.466-.19-1.596.024-.082.135-.209.137-.576.009a2.363 2.363 0 0 0-.965-.089c-.324.051-.495.012-.497-.113-.004-.12-.066-.137-.175-.044-.49.417-5 .719-4.572.306.096-.092-.072-.119-.46-.075-.36.041-.555.015-.473-.064.083-.08-.081-.096-.416-.038-.305.052-.738.126-.963.163-.225.037-.409.012-.409-.057 0-.068-.316-.096-.703-.062a5.151 5.151 0 0 1-1.402-.111c-.466-.115-.794-.127-.989-.035-.16.076-1.342.182-2.626.236-1.284.053-2.732.118-3.218.143-.56.029-1.01-.03-1.232-.162-.31-.185-.414-.183-.926.017-.508.198-.578.2-.578.014 0-.117-.157-.212-.35-.212-.193 0-.35-.07-.35-.155 0-.097-.206-.075-.55.06-.488.19-.627.191-1.212.01-.937-.29-2.927.008-2.541.379.143.138-.024.158-1.534.188-.702.014-1.14-.049-1.317-.19-.198-.157-.349-.173-.584-.06-.188.089-.508.105-.784.039a6.234 6.234 0 0 0-1.11-.122c-.352-.006-.641-.065-.641-.132 0-.129-1.265-.482-1.719-.48a5.907 5.907 0 0 0-.789.102c-.398.077-.66.011-1.106-.275-.474-.304-.647-.343-.924-.206-.439.217-3.578.295-4.272.107-.37-.1-.794-.098-1.405.01-1.36.24-2.919.338-2.747.172.081-.078.037-.142-.1-.142-.136 0-.247.066-.247.147 0 .084-.125.1-.292.037-.389-.148-.658-.153-1.275-.024-.285.059-.574.053-.642-.013-.069-.066-1.097-.099-2.285-.072a316.84 316.84 0 0 1-2.95.054c-.46.003-.93.11-1.126.252-.185.134-.277.173-.204.085.25-.3-.858-.348-2.977-.13-.797.082-1.291.064-1.684-.062-.554-.176-3.016-.124-4.287.091-.394.067-.513.048-.397-.064.104-.1.042-.131-.167-.083-.182.041-.504-.027-.714-.152-.353-.21-.442-.205-1.188.07-.607.223-.914.262-1.24.158-.495-.158-1.92-.165-1.92-.01 0 .056-.368.128-.817.16-.45.03-.817.007-.817-.055 0-.061-.21-.111-.467-.111s-.467-.093-.467-.206c0-.175-.452-.196-2.977-.14-1.637.037-3.184.083-3.438.102-.266.02-.464-.048-.467-.16-.004-.107-.212-.237-.463-.29-.505-.105-2.228.242-2.228.449 0 .075-.397.09-.934.036-.614-.062-.934-.042-.934.057 0 .236-1.1.178-1.257-.066a.333.333 0 0 0-.375-.13c-.13.047-.235.016-.235-.07 0-.095-.274-.13-.7-.09-.384.036-.759.009-.831-.062-.073-.07-.4-.087-.727-.038-.327.049-.662.026-.744-.051-.083-.078-1.096-.185-2.252-.24a111.57 111.57 0 0 1-2.802-.16c-.385-.032-.91-.067-1.167-.075-.257-.008-.986-.101-1.622-.206-.773-.128-1.232-.145-1.389-.052-.31.184-2.009.18-2.009-.004 0-.097-.153-.095-.472.007-.259.082-.574.112-.7.066-.126-.047-.229-.008-.229.084 0 .102-.195.065-.493-.096-.398-.214-.88-.268-2.51-.28-1.109-.01-2.437-.057-2.95-.105a56.957 56.957 0 0 0-2.218-.15 31.442 31.442 0 0 1-1.401-.083c-.329-.067-2.58-.12-8.406-.198-3.531-.047-7.208-.152-8.171-.232a66.491 66.491 0 0 0-3.152-.182c-.77-.019-1.559-.07-1.751-.114-.917-.208-2.073-.268-6.184-.32-5.226-.066-6.443-.204-6.869-.776-.226-.306-.467-.404-1.034-.424-.755-.027-1.59-.06-2.308-.094-.255-.012-.353-.095-.267-.228.1-.156-.037-.208-.544-.208-.374 0-.82-.078-.994-.174-.251-.14-.281-.14-.15 0 .18.19.19.188-1.11.236-.66.024-.794-.002-.506-.097.215-.072.593-.1.84-.061.297.046.447-.002.447-.144 0-.17.183-.196.876-.13.6.057.765.042.525-.05-.193-.072-.77-.138-1.284-.144-.514-.007-1.144-.066-1.401-.132-.433-.11-.424-.122.117-.15.32-.018.87-.04 1.222-.05.35-.01.765-.093.92-.185.218-.13.115-.187-.469-.257-.864-.103-1.02-.2-.745-.465.12-.116.646-.195 1.348-.202 1.027-.01 1.138-.042 1.03-.287-.065-.15-.156-.209-.2-.13-.045.08-.578.131-1.185.114-.772-.022-.964.003-.637.085.451.113.45.117-.04.127a6.87 6.87 0 0 0-.933.09c-.405.077-.406.07-.02-.12.502-.245.522-.378.059-.378-.193 0-.35-.062-.35-.139 0-.076-.112-.139-.247-.139-.136 0-.19.056-.12.123.171.165-.64.122-.841-.045-.094-.077-.296-.061-.5.04-.274.135-.413.129-.677-.029a2.594 2.594 0 0 0-.784-.267c-.337-.05-.294-.072.172-.084.343-.009.663-.087.711-.174.058-.103.22-.08.47.07.21.125.573.223.807.217.383-.009.378-.022-.042-.13-.432-.11-.424-.12.103-.128.555-.01.558-.016.117-.23-.376-.183-.384-.207-.052-.145.22.04.47.008.554-.073.105-.1.211-.093.333.024.125.121.225.084.336-.124.087-.163.256-.297.376-.297s.218-.056.218-.126-.198-.095-.44-.057c-.243.037-.496.015-.564-.05-.067-.064.39-.122 1.013-.128.625-.006 1.289-.087 1.477-.18.232-.114 1.017-.15 2.452-.113 1.618.042 2.138.011 2.23-.132.083-.128-.08-.189-.514-.192-.548-.003-.578-.023-.22-.147.502-.175.782-.208 2.814-.338 1.147-.073 1.522-.144 1.34-.253-.14-.083-.7-.133-1.244-.11-.82.033-.937.008-.686-.145.209-.127.878-.177 2.16-.16 1.723.022 2.233-.078 1.593-.314-.144-.053-.679-.096-1.188-.096-.509 0-.8-.047-.646-.103.208-.077.211-.128.01-.202a.81.81 0 0 0-.55.038c-.32.156-.947-.15-.676-.329.089-.059.028-.061-.134-.005-.163.056-.235.16-.162.231.17.163.208.166-1.156-.08-1.397-.253-2.859-.27-3.018-.034-.094.14-.122.14-.136 0-.01-.096-.13-.174-.266-.174s-.199.047-.14.105c.06.057-.247.111-.681.12-.434.01-.733-.038-.664-.104.069-.066.023-.12-.103-.12a3.73 3.73 0 0 1-.636-.094c-.278-.063-.354-.041-.238.07.11.106-.017.162-.364.162h-.533l.519-.216c.684-.286.658-.48-.065-.48-.32 0-.584-.047-.584-.106s1.025-.13 2.277-.157c2.375-.053 3.363-.095 3.56-.15.065-.02.354-.023.642-.01.29.015.526-.049.526-.14 0-.106.105-.121.292-.043.34.144 3.12.138 4.54-.009.868-.09 1.923-.497 1.289-.497-.132 0-.19-.116-.128-.257.084-.19.275-.242.737-.198.49.047.55.028.274-.089a2.364 2.364 0 0 0-.759-.15c-.224-.001-.408-.075-.408-.164 0-.09-.07-.121-.154-.07-.084.05-.314.013-.51-.082-.298-.144-.333-.134-.213.057.112.18-.069.26-.832.367-.537.076-1.134.144-1.326.15-.193.008-1.032.078-1.864.158-.833.079-1.64.115-1.795.08-.154-.036-.313-.01-.354.055-.04.066-.386.084-.767.04-.605-.07-.635-.094-.234-.184.268-.061-.075-.087-.823-.064-.707.023-1.415-.022-1.575-.099-.16-.076-.502-.106-.76-.066-.257.04-.409.016-.337-.053.167-.161-.052-.161-.558 0-.262.083-.595.061-.977-.065-.319-.105-.457-.193-.307-.196.15-.003.456-.047.68-.098.311-.071.36-.047.204.104-.138.133.012.113.454-.06.372-.144.903-.228 1.22-.192.308.035 1.005.01 1.55-.055.544-.065 1.987-.157 3.206-.203 1.22-.046 2.426-.15 2.68-.232.255-.081.822-.164 1.261-.185.44-.02.882-.118.984-.217.102-.098.48-.191.841-.207.361-.016.682-.041.714-.057.103-.05.51-.098.995-.116.392-.014.426-.058.205-.269-.222-.211-.548-.248-2.013-.226-1.053.016-1.622-.021-1.43-.093.174-.066.212-.126.084-.132-.129-.007-.024-.063.233-.124.268-.065.593-.052.763.029.208.099.422.073.72-.087.232-.125.571-.229.754-.23.274-.003.27-.026-.019-.137-.193-.074-.24-.136-.105-.137.135-.002.345.054.467.123.122.07.695.157 1.272.195.578.038 1.471.145 1.985.237.688.124 1.104.128 1.58.016.637-.149.64-.155.2-.417-.327-.195-.889-.284-2.08-.333-.898-.036-1.742-.106-1.875-.155s-.515-.015-.849.076c-.431.117-.68.122-.857.016-.316-.188 1.41-.383 2.15-.243.312.059.45.043.362-.043-.079-.076-.014-.135.146-.132.159.003.496-.003.75-.016.452-.021.451-.025-.017-.22-.262-.11-.737-.183-1.055-.162-.318.02-1.257-.018-2.085-.085-.829-.068-2.38-.12-3.447-.117-1.363.004-1.892-.04-1.78-.148.11-.106-.012-.121-.395-.047-.458.088-2.053.093-4.465.015-.225-.007-.408-.097-.408-.2 0-.129-.17-.162-.526-.104-.407.067-.443.055-.16-.052.341-.13 1.522-.178 3.137-.129a8.592 8.592 0 0 0 1.384-.092 3.865 3.865 0 0 1 1.341.034c.388.087.712.096.79.021.072-.07-.102-.127-.388-.127-.286 0-.45-.04-.366-.091.084-.05.023-.188-.136-.305-.231-.17-.231-.192.002-.109.16.058.292.038.292-.043 0-.135-.163-.164-1.168-.21a2.43 2.43 0 0 1-.596-.107c-.135-.05-.556-.086-.935-.08a7.575 7.575 0 0 1-1.271-.098c-.55-.104-.556-.117-.116-.22.383-.088.333-.11-.272-.118-.407-.005-.792-.088-.857-.183-.07-.104-.125-.076-.136.07-.01.133.139.243.331.243.193 0 .35.064.35.141 0 .08-.24.106-.538.062a18.986 18.986 0 0 0-.928-.115c-.46-.04-.829-.227-.447-.227.146 0 .2-.1.122-.222-.124-.192.077-.218 1.466-.194 2.214.04 2.435.024 2.369-.175-.036-.106.188-.172.566-.17.343.003.574-.044.511-.104-.062-.06-.285-.109-.496-.109-.277 0-.312-.042-.128-.152.185-.11.397-.107.767.011.656.21.928.06.35-.192-.295-.129-1.214-.199-2.784-.214-1.364-.012-2.442-.086-2.579-.175-.166-.109-.115-.128.174-.068.477.1.532-.049.117-.315-.238-.153-.218-.172.109-.104.22.046.47.018.554-.064.086-.082.218-.093.3-.024.08.069.881.085 1.78.037.899-.048 1.419-.097 1.156-.109-.264-.012-.598-.093-.743-.18-.155-.092-.441-.112-.69-.049-.557.143-2.408.168-2.408.034 0-.058-.28-.105-.623-.105-1.434 0-.252-.12 2.024-.206 1.348-.05 2.543-.145 2.655-.21.112-.065.365-.082.563-.036.237.054.303.026.192-.08-.221-.214.153-.21.512.003.218.13.281.122.284-.034.004-.172.037-.171.23.007.142.131.228.146.23.04.004-.167.641-.155 2.513.048.418.045.76.028.76-.038s.324-.127.72-.135c.474-.01.613.024.408.102-.224.084-.163.118.214.12.289.001.525-.054.525-.121 0-.068.31-.15.688-.184.378-.033.635-.009.57.054-.065.063-.348.121-.63.13-.436.014-.447.026-.074.083.24.037.74-.066 1.109-.229.504-.222.672-.246.672-.098 0 .222.569.399.814.253.21-.126 1.528-.161 5.039-.137.715.005 1.522-.061 1.794-.148s1.578-.166 2.902-.176l2.409-.02-1.751-.11c-.963-.06-2.513-.13-3.443-.155-.93-.024-1.692-.085-1.693-.136 0-.05-1.06-.098-2.354-.105-1.516-.01-2.575-.084-2.974-.208l-.62-.194.76.036c.418.02.829.076.912.125.266.159 1.43.096 1.552-.084.095-.139.122-.139.136 0 .028.263.953.213.953-.05 0-.166.156-.208.59-.158.323.036.644.013.713-.053.068-.066.46-.118.87-.117 1.702.008 4.264-.08 4.481-.152.128-.043.47-.067.759-.054.289.014.525-.024.525-.084 0-.06.316-.15.703-.201.387-.05.872-.193 1.079-.316.258-.154.752-.219 1.573-.207 1.405.021 3.883-.247 3.883-.42 0-.065-.201-.08-.447-.034s-.51.023-.588-.051c-.078-.075-.507-.1-.954-.057-.499.048-.813.021-.813-.069 0-.08-.184-.173-.408-.206-.225-.032.38-.044 1.342-.027.963.018 1.946.08 2.183.139.238.058.5.05.584-.018.084-.069.66-.142 1.283-.162 1.015-.033 2.187-.258 1.981-.38-.043-.026-2.865-.071-6.27-.1-3.406-.03-6.304-.095-6.44-.145-.312-.115-6.319-.013-7.074.12-.32.057-.506.045-.431-.027.14-.135-1.137-.156-1.361-.023-.073.044-.439.027-.813-.036-.374-.064-1.075-.09-1.558-.056-.676.046-.798.025-.529-.091.264-.115.061-.134-.817-.08-.954.06-1.071.045-.642-.079.49-.141.741-.408.35-.37-.096.008-.333 0-.525-.021-.193-.02.595-.11 1.751-.198 1.156-.09 2.193-.116 2.305-.06.112.055.359.065.549.022.19-.044.426-.002.525.095.136.13.3.135.66.02.604-.192 1.717-.222 3.14-.084.779.075 1.11.06 1.11-.05 0-.088.11-.159.247-.159.136 0 .172.073.08.161-.118.114-.001.133.395.067.725-.123 3.63-.21 9.362-.283 2.529-.031 4.735-.108 4.902-.17.166-.06 1.086-.129 2.043-.15.957-.023 1.835-.097 1.95-.166.287-.17-3.55-.69-5.37-.727-.878-.017-1.393-.083-1.307-.165.088-.086-.113-.101-.535-.042-.373.053-.835.09-1.027.083-1.758-.066-3.672-.05-3.59.03.127.122-1.198.03-1.576-.109-.152-.056-.218-.045-.146.024.122.118-7.34.128-13.06.018-1.476-.029-2.326.005-2.24.087.082.08.012.087-.175.018-.278-.102-1.22-.162-3.659-.233-.41-.012-.698-.069-.639-.126.06-.057-.077-.137-.303-.177-.227-.04.02-.04.55-.001.756.056.993.021 1.11-.161.104-.16.315-.208.676-.154.288.043.681.019.873-.053.279-.105.243-.132-.177-.133-.289-.002-.525-.059-.525-.127s.25-.115.554-.104c.546.02.639.15.322.452-.145.137.52.164 1.867.074.492-.033.324-.298-.189-.298-.298 0-.419.06-.318.158.091.087.045.133-.103.104-.146-.03-.24-.102-.207-.162.032-.06-.086-.163-.263-.228-.334-.123 2.708-.075 3.634.057.28.04.578.008.66-.07.081-.08.061-.135-.045-.124-.527.055-1.02-.028-.894-.15.082-.079-.013-.102-.22-.055-.2.046-.362.014-.362-.071 0-.085.131-.155.292-.156.16-.002.544-.042.853-.091.43-.069.517-.047.37.095-.138.133-.086.16.19.097.21-.048.443-.027.52.046.075.073.315.128.532.122.243-.007.283-.038.103-.08-.592-.143-.27-.314.332-.178.742.168 1.349.068 1.097-.182-.134-.133-.086-.131.198.006.254.122.423.133.527.034.1-.097.272-.076.502.061.193.115.285.272.205.35-.08.076-.045.14.077.14.266 0 .553-.399.397-.55-.061-.058.428-.08 1.087-.05.816.038 1.26-.002 1.39-.124.15-.14.194-.134.196.03.003.158.26.206 1.038.194l1.034-.017-.369.336c-.366.332-.363.334.308.238.831-.119 1.011-.197.455-.197-.323 0-.359-.042-.158-.186.143-.103.217-.213.165-.244-.052-.031.422-.043 1.055-.026 1.329.036 2.17.253 1.925.498-.093.092.03.073.271-.042.257-.121.367-.136.265-.034-.2.197-.006.207.67.034.398-.102.407-.12.058-.129-.225-.006-.41-.077-.41-.158 0-.085.2-.111.468-.06.588.11 1.455-.045 1.265-.227-.078-.076-.474-.099-.879-.051-.55.064-.648.05-.386-.06.193-.08.528-.146.745-.147.622-.003.689-.218.185-.6l-.465-.351.894-.09c.492-.05.991-.08 1.11-.066.482.055.8-.018.8-.184 0-.223-5.741-.323-6.178-.107-.447.22-2.652.09-3.112-.184-.351-.21-.357-.256-.05-.383.261-.108.142-.126-.467-.071-1.098.099-6.669-.17-8.614-.415-.94-.118-.243-.312 1.493-.416.9-.054 1.713-.167 1.81-.25.12-.106.246-.09.405.055.213.193.343.095.254-.193-.022-.07.397-.075.965-.014.551.06 1.213.108 1.47.106 1.86-.014 8.625-.193 8.686-.229.12-.072-4.8-.262-6.52-.251-.864.005-1.632-.05-1.707-.122-.076-.073-.009-.132.15-.132.157 0 .218-.04.135-.09-.082-.048-.284-.026-.447.051-.467.22-2.993.324-3.547.146-.309-.098-2.704-.176-6.557-.212-3.339-.03-6.438-.11-6.887-.177l-.818-.121.818.007c2.375.02 2.79-.016 2.647-.237-.077-.12-.289-.183-.472-.141-.182.042-.275.021-.206-.045.069-.067 2.044-.124 4.39-.128a317 317 0 0 0 4.38-.022c.065-.009 1.536-.036 3.27-.06 1.733-.024 3.572-.111 4.085-.194.514-.082 3.927-.22 7.586-.308 3.716-.089 6.776-.22 6.935-.3.157-.076.387-.102.511-.056.124.045 1.183-.015 2.352-.136 1.169-.12 2.306-.184 2.527-.142.221.041.712-.046 1.092-.194.637-.25.654-.278.233-.375-.42-.096-.41-.111.128-.2.427-.072.258-.101-.629-.112-.666-.007-1.287-.086-1.378-.174-.103-.1-.064-.123.103-.061.148.054.27.033.27-.049 0-.08.183-.149.408-.152.315-.003.279-.047-.158-.192-.551-.181-.533-.19.654-.342.67-.086 1.398-.157 1.617-.158.342-.003.348-.021.047-.137-.27-.104-.278-.136-.034-.137.185-.002.261-.09.183-.211-.074-.115-.027-.209.105-.209s.175-.062.096-.139c-.08-.076-.46-.139-.845-.139-.407 0-.64-.058-.556-.139.08-.077.506-.14.948-.14.91 0 1.066-.227.278-.405-.494-.112-.476-.127.292-.261l.817-.143-.74-.012c-.406-.008-.774-.074-.817-.15-.043-.075-1.051-.16-2.242-.188-1.19-.028-2.221-.085-2.292-.127-.07-.042 1.009-.052 2.398-.024 1.482.031 2.392.003 2.203-.068-.226-.084-.052-.144.584-.2 1.308-.114 4.149-.257 5.105-.257.451 0 .82-.06.82-.133 0-.074.113-.092.25-.042.358.132 2.319-.065 2.319-.232 0-.077-.203-.102-.45-.055-.248.047-1.877.095-3.62.107-1.856.012-3.168.077-3.168.156 0 .074-.077.088-.172.031-.095-.056-.174-.207-.175-.335-.003-.185-.188-.223-.905-.187-.543.028-.846-.008-.761-.089.14-.136-.403-.284-1.49-.406-.32-.036-2.211-.083-4.202-.104-5.202-.055-7.025-.148-7.262-.371-.157-.148-.203-.15-.206-.01-.002.132-.237.155-.879.087-1.486-.16-1.592-.29-.316-.391 1.96-.155 2.137-.254.835-.467a28.775 28.775 0 0 0-1.511-.217 1.328 1.328 0 0 1-.584-.2c-.128-.094-.617-.188-1.086-.208-.47-.02-.804-.083-.745-.14.06-.058.391-.07.737-.027.445.056.526.041.277-.051-.193-.072-.755-.173-1.25-.227a14.588 14.588 0 0 1-1.518-.245c-.34-.083-1.038-.174-1.551-.204-.514-.03-1.25-.144-1.635-.252a11.493 11.493 0 0 0-1.388-.283c-.443-.056-.587-.124-.402-.192.197-.073.103-.155-.304-.266-.765-.207-.748-.387.051-.56.603-.132.609-.14.1-.151-.47-.01-.498-.037-.206-.211.298-.177 1.347-.322 2.9-.4.807-.04.076-.391-.876-.42-.822-.025-1.182-.283-.585-.42.198-.044.36-.034.36.023s.469.117 1.041.131c.815.022 1.014-.015.914-.17-.07-.109-.302-.23-.516-.27-.213-.04.005-.04.487-.001.529.043.876.013.876-.075 0-.08-.5-.152-1.11-.16-1.108-.014-1.108-.014-.35-.159 1.52-.29.941-.38-3.858-.592-1.701-.075-2.62-.195-2.62-.34 0-.057 3.02-.114 6.712-.127 6.718-.024 8.697-.092 8.697-.3 0-.17-2.86-.379-3.327-.244-.24.069-.596.058-.86-.026-.249-.08-1.115-.145-1.926-.146-1.039-.002-1.371-.042-1.125-.137.258-.1.105-.135-.583-.135-.72 0-.854.034-.584.146.265.11.209.121-.234.044a7.862 7.862 0 0 0-1.342-.074c-.418.015-.759-.033-.759-.107 0-.16.847-.34 1.122-.239.105.04.71.02 1.344-.044l1.153-.115-.934-.027c-.514-.015-.804-.059-.644-.097.419-.101-.207-.448-.754-.418-.23.012-.457-.04-.503-.116-.046-.077.153-.153.442-.17.289-.016.735-.058.992-.093.257-.035 1.255-.076 2.218-.092 1.603-.025 1.475-.043-1.517-.213-2.863-.163-6.147-.317-7.077-.332-.168-.002-.252-.057-.186-.12.066-.064.624-.102 1.24-.086.616.017 1.22-.006 1.344-.05.124-.044.569-.1.989-.127 1.97-.12 1.793-.274-.525-.46-2.467-.198-2.419-.355.129-.417l1.284-.031-1.012-.098c-.557-.054-1.083-.166-1.17-.25-.087-.083-.472-.189-.856-.234-.55-.066-.599-.055-.231.048.382.108.395.134.075.142a1.617 1.617 0 0 1-.736-.196c-.19-.113-.96-.244-1.71-.292-.75-.047-1.417-.127-1.481-.177-.065-.05-.38-.112-.7-.138-.322-.025-.675-.098-.785-.16-.411-.235.848-.427 3.287-.5 1.384-.041 2.863-.14 3.285-.218.423-.079.917-.11 1.097-.068.18.041.885.017 1.566-.054 2.674-.277 12.233-.539 17.932-.49 4.12.034 4.437.014 4.437-.286 0-.106.105-.193.233-.193s.233.096.233.214c0 .186.36.202 2.744.12 1.509-.051 2.848-.137 2.977-.19.128-.053 1.336-.109 2.685-.124 1.348-.014 3.757-.094 5.352-.177 1.595-.082 3.29-.112 3.767-.067.567.054.951.021 1.113-.095.232-.167 1.843-.197 2.5-.047.157.036.572-.024.924-.132.352-.11.833-.198 1.069-.198s.697-.073 1.024-.161c.427-.116.747-.12 1.136-.015.694.189 2.95-.04 3.313-.336.318-.259 2.45-.434 2.45-.202 0 .276.738.17.867-.124.088-.201.25-.259.562-.2.241.046.438.026.438-.043 0-.069.578-.243 1.284-.386.707-.143 1.284-.31 1.284-.37s.15-.11.334-.11c.183 0 .485-.09.67-.2.22-.132 1.003-.219 2.279-.254 1.173-.033 1.98-.118 2.033-.213.049-.088.449-.2.89-.249.812-.09 1.497.055 3.017.642.385.149.858.314 1.05.366.193.053.703.253 1.133.446.714.32 1 .352 3.314.37 1.722.015 2.519-.027 2.487-.13-.082-.273 1.252-.264 1.601.011.304.24.323.235.33-.074.006-.248.103-.306.398-.239.214.05.47.013.567-.081.248-.24 4.389-.227 4.639.015.141.136.295.139.693.012.281-.09.793-.15 1.139-.133.345.016.93-.044 1.301-.134.371-.09.725-.133.787-.096.062.036.27-.028.463-.143.238-.141.573-.18 1.033-.12.402.053.819.021 1.016-.077.234-.115.828-.136 1.951-.069 1.321.08 1.726.054 2.224-.14.335-.131.818-.205 1.075-.165.576.09 2.128-.18 1.961-.34-.067-.065-.016-.118.112-.118a.6.6 0 0 1 .362.124c.22.213 2.973.436 3.186.258.074-.062.421.022.771.186.35.164.7.26.78.213.079-.047.015-.086-.143-.086-.157 0-.22-.063-.14-.14a.368.368 0 0 1 .35-.068c.112.042.288-.01.393-.115.104-.104.508-.227.899-.272.9-.103 2.706.036 2.54.196-.125.12.353.175 1.128.129.224-.014.408.041.408.123 0 .256.907.16 1.161-.123.191-.213.155-.302-.167-.415-.318-.112-.24-.125.349-.06.593.066.759.037.759-.133 0-.317.381-.408.9-.215.372.139.525.125.867-.079.298-.177.634-.226 1.192-.172.656.063.776.033.776-.194 0-.34.13-.338.746.003.538.299 1.002.241.784-.097-.076-.117-.011-.42.143-.673.233-.385.43-.476 1.194-.553.56-.056 1.014-.033 1.172.061.141.085.435.154.653.154.217 0 .455.094.53.209a.527.527 0 0 0 .4.208c.146 0 .205-.094.131-.208-.083-.13 0-.209.222-.209.211 0 .289-.066.19-.161-.115-.11-.008-.136.337-.083.359.056.636-.021.966-.271.357-.271.596-.33 1.05-.263.512.076.588.042.588-.263 0-.278.117-.35.57-.35.314 0 .635.063.714.14.219.21.817.166.817-.062 0-.123.29-.216.76-.243.51-.03.83-.142.98-.345.122-.165.507-.335.856-.376.499-.06.608-.136.51-.358-.067-.155-.057-.439.025-.631.117-.278.293-.35.857-.35.414 0 .65.058.565.139-.084.08.154.139.57.139.559 0 .715-.06.715-.278 0-.218.155-.279.715-.279.394 0 .923.066 1.176.147.742.237 2.234.216 2.706-.037.232-.125.71-.27 1.063-.322.352-.053.582-.152.51-.22-.2-.194.598-.32.896-.142.146.086.546.157.89.157s.756.094.916.209c.16.115.409.203.554.197.164-.007.152-.037-.03-.081-.404-.097-.125-.325.397-.325.234 0 .596-.155.805-.344.308-.28.517-.331 1.135-.275.63.056.679.044.29-.076-.388-.12-.35-.13.232-.061.384.045.776.156.872.246.13.12.175.118.177-.011.005-.096.208-.174.457-.174.25 0 .518-.063.598-.14.079-.076.263-.138.408-.138.146 0 .067.086-.175.191-.414.18-.417.206-.045.427.319.19.395.197.395.034 0-.11.161-.28.358-.378.296-.146.413-.131.681.087.333.271.648.204.737-.157.028-.112-.115-.204-.318-.204-.202 0-.294-.045-.203-.099.265-.158 1.813.404 1.68.61-.071.111.05.184.309.184.329 0 .402-.08.316-.345-.168-.524.103-.96.695-1.119.728-.195 1.24-.11 1.536.254.141.174.255.22.264.108.013-.148.149-.126.541.086.67.364 1.723.481 2.07.232.318-.229 1.14-.252 1.14-.034 0 .105.097.112.292.02.489-.227 1.362-.304 1.952-.17.352.08.558.076.558-.01 0-.074.164-.135.364-.135.2 0 .309.054.24.12-.172.166 1.113.009 1.297-.159.092-.084.493-.092 1.05-.02.496.064 1.086.105 1.31.09.225-.015.409.034.409.11 0 .075.394.142.875.147.703.008.784.034.409.13-.41.104-.417.123-.058.15.886.066.992.051.992-.14 0-.11.289-.245.642-.301.353-.057.642-.065.642-.019 0 .047.134-.025.298-.158.357-.29 1.957-.247 2.292.063.173.16.249.162.41.014.149-.138.29-.097.583.169.212.193.386.447.386.564 0 .15.235.214.785.214.711 0 .774-.033.673-.348-.092-.286-.02-.348.408-.348.365 0 .48-.061.385-.208-.102-.157.04-.209.572-.209.412 0 .647.058.563.14-.08.076-.027.138.117.138.143 0 .196.063.116.14-.124.119.542.21 1.119.153.101-.01.397.05.656.132.398.127.46.11.399-.102-.05-.175.073-.253.395-.253.29 0 .438.078.391.205-.06.161.018.154.369-.035.244-.132.593-.24.776-.24.182 0 .631-.095.998-.208.366-.114.76-.173.874-.13.115.041.331-.084.48-.28.292-.38 1.05-.513.81-.141-.213.33.78.491 1.44.233.421-.164.523-.17.469-.024-.038.102.138.213.391.245.579.075 1.044.441.88.695-.09.14.058.182.552.156.372-.02 1.082.068 1.58.196.497.128 1.048.232 1.225.232.19 0 .322.147.322.36 0 .57.561.316.596-.271.034-.587.209-.73 1.038-.849.432-.062.752.01 1.229.276.535.298.668.323.784.143.076-.118.285-.215.464-.215.179 0 .325-.056.325-.124 0-.069.27-.165.598-.214.453-.068.707-.012 1.046.229.275.194.517.263.628.178.219-.17 1.23-.207 1.23-.046 0 .064.196.116.436.116s.733.14 1.098.31c.364.17.582.233.484.14-.1-.097-.064-.172.084-.172.143 0 .203-.056.133-.123-.175-.17.488-.479.788-.368.133.049.427.025.653-.054.225-.078.326-.144.224-.146-.283-.007 1.849-1.256 2.143-1.256.141 0 .561.189.932.42.6.374.694.394.837.174.15-.23.19-.226.56.045.22.16.554.333.742.384.19.051.11.067-.183.034-.72-.08-.665.17.074.337.475.108.566.198.44.435-.123.231-.08.28.194.218a39.02 39.02 0 0 1 1.27-.244c.856-.153 1.807-.69 1.22-.69-.137 0-.184-.063-.104-.14.21-.203.583-.17.583.053 0 .105.145.263.322.35.177.088.382.338.455.555.103.306.298.415.86.482.474.057.67.144.56.25-.105.101-.066.124.106.06.15-.055.225-.147.165-.204-.06-.057.097-.192.347-.3.548-.235.586-.411.087-.411-.326 0-.328-.023-.017-.209.193-.115.463-.209.6-.209.138 0 .224-.072.192-.162-.08-.22 1.49-.413 1.863-.228.16.079.234.2.163.268-.071.069.035.162.235.208.2.045.305.139.234.207-.07.069.027.125.22.125.19 0 .414.125.496.278.081.153.325.277.54.276.34-.003.346-.02.043-.142-.305-.121-.297-.158.064-.284.227-.08.342-.214.255-.297-.096-.093-.049-.112.123-.05.153.057.431.029.616-.063.198-.098.593-.128.953-.074.504.075.59.05.473-.131-.1-.155-.056-.19.146-.112.159.06.604.111.99.111.482 0 .678.062.628.198-.06.167-.012.169.31.01.322-.16.414-.158.593.01.147.14.213.147.216.026.004-.095.187-.173.412-.172.323.002.341.028.087.124-.177.067-.254.187-.17.268.155.149 1.076.028 2.162-.282.567-.163 1.015-.055 1.015.244 0 .11.14.2.312.2.368 0 .924.656.722.851-.085.082.109.097.499.04.43-.065.587-.047.482.054-.085.082-.049.188.081.236.13.048.349-.06.486-.238.208-.272.444-.331 1.432-.357 1.013-.026 1.265.022 1.75.335.313.2.513.451.445.557-.085.131.058.192.452.192.317 0 .577.063.577.139 0 .252.41.145.534-.14.08-.18.319-.277.681-.277.307 0 .659-.056.78-.124.436-.242 1.273-.323 1.273-.122 0 .105.123.263.272.352.207.124.339.108.55-.064.459-.374 1.095-.122 1.005.398-.045.264.041.464.216.498.16.032.292-.007.292-.088 0-.093.19-.104.523-.03.543.12 1.308-.051 1.648-.368.258-.24.864-.22.864.03 0 .235.686.482 1.096.394.154-.033.221-.15.15-.26-.094-.145.05-.196.539-.188.367.007.535.043.375.081-.395.095-.371.325.033.325.18 0 .386.094.46.209.074.115.295.208.492.208s.36.11.365.244c.007.232.022.232.318 0 .17-.134.43-.244.576-.244.146 0 .266-.093.266-.208 0-.233.044-.243.55-.128.195.045.297.17.227.278-.074.116.017.198.22.198.513 0 .97.364.619.493-.196.072-.16.14.122.234.291.097.477.068.695-.11.315-.256.957-.152.684.111-.103.1-.022.12.23.06l.716-.172c.214-.052.314.007.291.174-.028.207.169.26 1.097.296.752.028 1.08-.007.978-.105-.084-.08-.035-.147.108-.147.144 0 .192-.066.108-.148-.105-.1.133-.117.745-.051 1.09.118 1.221.176.775.344-.448.168-.178.168.567 0 .392-.09.64-.086.74.009.08.079.282.113.446.075a.868.868 0 0 1 .555.085c.14.084.81.157 1.487.163.86.007 1.32.08 1.522.24.174.139.478.202.759.158.274-.043.468-.005.468.092 0 .183.619.104 1.751-.225.386-.112 1.22-.23 1.854-.263.634-.033 1.226-.131 1.316-.218.09-.087.273-.117.407-.068.134.05.308.027.387-.049.21-.201 1.037.14.891.368-.066.102.038.183.235.183.238 0 .314.091.231.279-.099.226-.007.278.49.278.335 0 .61-.063.61-.14 0-.076.394-.129.876-.117.704.016.75.032.233.078-.353.032-.642.107-.642.167 0 .098.354.105 1.693.034.224-.012.408-.088.408-.17 0-.08-.118-.103-.263-.05-.162.06-.219.023-.146-.096.064-.106.247-.175.405-.153.158.021.416-.024.573-.102.323-.16 3.18-.134 3.014.027-.06.058.062.105.27.105.207 0 .313.062.233.139-.2.193.197.174.533-.026.152-.09.354-.118.449-.062.095.056.018.16-.171.232-.288.109-.278.13.065.132.224.001.408.06.408.13 0 .076.33.073.82-.008.452-.074.925-.097 1.051-.05.127.047.23.026.23-.046 0-.191 1.236-.302 1.564-.14.154.075.53.118.838.094.53-.042 1.569.395 1.35.568-.054.044.103.098.351.122.334.03.37.009.14-.085-.22-.09-.027-.154.656-.22.532-.05 1.054-.06 1.16-.02.106.039.247-.054.314-.206.156-.355 1.024-.364 1.668-.017.474.256 2.231.51 2.234.323 0-.053.308-.2.683-.327.646-.219.703-.217 1.086.035.46.303 1.042.343 1.452.099.218-.13.28-.126.28.017 0 .147.069.15.35.01.284-.14.35-.134.35.031 0 .281.847.723 1.035.541.19-.183.834-.039.768.172-.034.107.322.15 1.058.13.746-.022 1.11.024 1.112.139.005.116.068.109.21-.024.12-.113.373-.156.602-.104.275.063.432.006.518-.188a.523.523 0 0 1 .445-.28c.178 0 .327-.077.332-.173.005-.096.167 0 .36.211.337.37.409.383 1.76.316.997-.05 1.523-.149 1.8-.339.558-.383 1.322-.483 1.75-.228.197.118.634.214.972.214.353 0 .553.06.47.14-.08.077.012.176.202.22.323.073 1.297-.129 2.717-.564.334-.103.783-.135 1.05-.077.257.057.602.073.766.036.396-.088 1.225.491 1.062.743-.077.12.02.197.249.197.206 0 .375.06.375.132 0 .173 1.438-.109 1.76-.344.229-.168.81-.257 1.443-.221.163.01.222.112.14.24-.115.178-.042.206.346.132.362-.068.69.02 1.238.332.41.234.651.429.536.434-.116.005.05.07.37.146.396.094.605.091.662-.01.045-.08.19-.107.322-.059.304.112.646-.203.65-.6.005-.416.397-.526 1.135-.319 1.456.41 1.639.444 1.882.354.14-.052.26-.012.263.088.005.12.112.1.318-.061.17-.134.435-.244.587-.244.152 0 .54-.157.863-.35.397-.236.804-.339 1.262-.318.518.024.617.072.427.209-.2.143-.103.147.495.023.656-.136.784-.12 1.09.141.375.319 1.657.435 1.34.121-.12-.118-.05-.113.219.017.217.104.605.157.862.117.258-.04.415-.02.348.043-.134.13 1.558.07 2.433-.086.398-.07.513-.053.395.061-.092.089-.056.161.08.161s.247-.062.247-.139c0-.22 1.631-.167 1.776.057.094.147.3.166.814.079.42-.072.636-.067.553.012-.226.218.209.14.827-.148.65-.303 1.167-.358 1.167-.124 0 .202 1.112.038 1.563-.23.266-.159.272-.203.03-.205-.17-.002.149-.127.707-.278 1.077-.291 1.503-.263 1.28.084-.11.168-.014.192.486.118.342-.051.592-.039.555.028-.07.125.109.19.53.19.136 0 .182-.063.103-.14-.08-.076-.04-.138.087-.138s.298-.124.378-.275c.117-.22.328-.269 1.044-.244.494.018.849.079.79.136-.06.058.013.104.152.104.15 0 .184.075.082.174-.102.099.078.074.414-.057.558-.218.654-.216 1.567.028.535.142.973.2.973.127 0-.073.236-.14.525-.15.364-.013.274-.054-.292-.131-.8-.11-.797-.11.117-.046 1.448.102 2.033.093 2.19-.035.272-.222 2.325-.22 3.075.003.804.239 3.288.28 3.52.058.093-.09.34-.077.694.036.302.097 1.372.193 2.377.216 1.55.034 1.898 0 2.278-.228.333-.198.647-.247 1.213-.189 1.295.134 1.53.21 1.01.325-.433.096-.43.104.059.18.282.045.466.035.409-.02-.173-.166 1.466-.456 2.003-.354.381.072.423.12.181.21-.398.146-.276.21.605.315.385.046.57.05.41.008-.223-.058-.213-.12.041-.272.37-.22 2.346-.42 2.134-.215-.073.07.033.165.236.211.569.13.974.08.447-.055-.42-.107-.423-.12-.043-.129.233-.006.627.055.875.134.308.098.452.099.452.002 0-.086.394-.115.992-.073.607.042.871.022.68-.052-.234-.091-.18-.141.224-.204.294-.046.583-.055.643-.02.059.036-.023.064-.182.064-.2 0-.178.067.07.214.504.3 1.89.088 1.892-.29 0-.15.192-.289.437-.317.3-.035.38.003.257.122-.134.129-.02.15.44.08.365-.054.618-.034.618.05 0 .078.157.141.35.141.422 0 .451.163.07.39-.217.13-.166.167.234.167.282 0 .514-.06.514-.133 0-.234 3.886-.477 4.114-.257.064.062.363.076.664.03.333-.05.808.017 1.212.169l.664.25-.447-.31-.446-.308.775.093c.557.066.727.047.607-.069-.106-.102.014-.16.314-.16.264 0 .455.078.423.173-.085.25 1.277.163 1.6-.101.33-.269.65-.276.48-.01-.148.228.62.43 1.041.275.163-.06.223-.023.156.095-.061.106.1.303.355.437.582.303.72.307.531.015-.125-.195-.092-.202.227-.044.311.154.412.152.61-.015.19-.16.211-.15.103.05-.144.264-.274.264 2.31.01.559-.054.63-.036.35.09-.278.126-.205.14.35.07.385-.048.932-.085 1.217-.082.363.004.477-.055.383-.2-.085-.134.014-.207.267-.207.26 0 .353.073.266.208-.087.134.014.213.267.22.244.007.287.039.109.081-.16.039-.292.126-.292.194 0 .16 1.469-.007 1.67-.19.084-.075.33-.095.55-.045.294.067.364.035.265-.119-.074-.116-.06-.215.033-.22.093-.005.457-.032.81-.06.353-.027.642.008.642.08 0 .07-.179.129-.397.129-.29 0-.327.041-.138.154.176.105.731.119 1.74.042 1.342-.101 1.404-.12.663-.195l-.817-.084.775-.111c.427-.061.837-.074.913-.03.075.046.264.02.42-.058.329-.162 1.104-.028.912.157-.072.069-.018.125.118.125.346 0 .31-.378-.044-.469-.16-.041.014-.048.389-.017.374.032.789.123.922.203.134.079.437.144.676.144.239 0 .377.054.308.121s.4.163 1.045.214c.644.051 1.113.149 1.042.217-.07.068-.019.164.115.214.134.049.214.006.179-.095-.044-.126.268-.2.986-.234.817-.039.947-.075.584-.164-.417-.102-.401-.116.146-.124.338-.006.745.084.905.199.303.218 1.4.292 1.4.094 0-.062 1.167-.09 2.592-.06 1.55.031 2.537.001 2.458-.076-.079-.076.222-.09.735-.036.54.057 1.092.025 1.453-.084.321-.098.54-.195.487-.216-.054-.022-.047-.13.016-.242.084-.151.558-.208 1.849-.223 1.83-.02 2.552.128 2.552.523 0 .132.224.312.498.4.364.115.42.187.206.266-.177.065.09.13.674.163.812.046 1.065-.005 1.568-.318.568-.353 1.723-.62 1.723-.397 0 .057.21.136.467.176.257.04.467.169.467.285 0 .117.208.252.463.3.254.048.438.157.408.243-.058.169 1.86.426 2.212.297.119-.044.416.029.661.16.31.168.658.216 1.144.158.384-.045.75-.032.814.03.129.124.785.096 2.677-.112.692-.076 1.428-.087 1.635-.024.207.062 1.19.19 2.183.282.994.093 2.132.266 2.53.384.45.133 1.028.186 1.526.137.474-.045.746-.024.666.054-.074.072 0 .137.17.144.168.008.043.064-.278.126-.473.09-.371.114.54.125.619.007 1.328.079 1.577.158.563.18.593.02.043-.229-.376-.17-.361-.186.175-.204 1.166-.038 1.962.041 2.491.248.339.132.781.178 1.184.124.552-.075.582-.064.207.07-.313.113-.357.187-.155.261.158.058-.025.097-.416.088-.383-.008-.649-.062-.59-.12.166-.16-.23-.125-1.35.118-.561.122-1.31.22-1.663.218-.353-.002-.642.067-.642.154 0 .112-.08.11-.28-.01-.384-.228-.732-.21-.577.03.07.109-.035.235-.233.28-.198.045-.304.168-.236.273.206.32-1.506.69-2.81.608-.614-.038-.986-.041-.824-.007.161.035.224.13.139.212-.086.082-.053.111.073.065s.536.028.914.165c.428.155 1.661.315 3.286.427 2.793.191 4.849.58 3.873.732-.36.056-.474.032-.363-.08.089-.088-.031-.066-.268.048-.317.154-1.032.209-2.71.21-1.714 0-2.222.04-2.052.162.125.09.64.2 1.147.244l1.855.162c.515.045.876.14.803.21-.073.07.058.164.29.209.234.044.634.133.891.197s.989.146 1.627.182c.638.037 1.194.129 1.237.204.098.175.988.045.988-.143 0-.093.098-.092.292.002.353.172 2.754.176 3.125.007.165-.076.315-.044.398.086.1.153-.092.228-.732.29-.475.045-1.127.112-1.448.148-.455.051-.507.034-.234-.079.418-.172-2.026-.055-3.174.152-.398.072-.88.095-1.072.051a.92.92 0 0 0-.648.135c-.179.129-.676.215-1.232.215-.871 0-.925.023-.82.352.072.224-.015.393-.239.468-.462.154-.162.428.486.446.477.013.472.022-.071.125-.576.11-.574.112.117.135.561.02.613.044.26.127-.383.09-.338.132.35.335.666.195.708.232.266.235-.31.002-.526.089-.526.211 0 .116-.207.21-.467.21-.532 0-.575.111-.166.432.194.151.854.255 2.047.322 1.853.103 2.478.234 2.235.468-.173.167 1.02.438 2.048.466.661.018.643.028-.21.12l-.934.099.817.014c.45.007 1.238-.035 1.751-.095.545-.062 1.713-.037 2.802.061 1.027.093 1.74.176 1.584.184-.158.008-.223.11-.147.229.141.219.696.198.626-.023-.021-.067.347-.137.817-.156.64-.026.768.001.506.107-.249.1 0 .118.856.064.783-.05 1.265-.021 1.372.082.113.108.014.13-.312.068-.617-.116-.884.138-.345.33.34.121.27.144-.404.131-.45-.009-2.488.032-4.531.092-2.472.072-3.665.061-3.57-.032.093-.088-.255-.118-.955-.08-.605.032-2.256.078-3.669.102-3.813.065-3.62.05-3.47.283.075.115.418.208.764.208.345 0 .728.052.85.116s.905.233 1.74.376c.834.143 1.57.3 1.634.348.1.076 3.902.383 5.253.424.418.012.407.03-.1.172-.433.122-.587.119-.66-.013-.165-.294-.695-.186-.668.137.032.37.943.529 3.12.54.803.004 1.46.066 1.46.136 0 .071-.105.129-.234.129-.128 0-.233.055-.233.123 0 .194 1.25.286 1.594.117.206-.102.362-.105.467-.012.086.078.63.206 1.208.285l1.05.143-1.006-.01c-.598-.006-1.083.064-1.196.174-.14.134-.235.14-.358.023-.125-.122-.247-.121-.496.002-.181.09-.33.117-.33.06 0-.057-.152-.029-.338.064-.187.092-.554.126-.817.077-.317-.06-.48-.029-.482.093 0 .142-.044.144-.187.01-.133-.123-.393-.136-.93-.044-.411.07-.747.099-.747.063 0-.036-.22.006-.49.091-.61.195-1.885.046-1.366-.16.373-.147-.545-.06-1.74.165-.372.07-1.665.127-2.874.127-1.405 0-2.145.05-2.052.14.078.076-.076.138-.344.138-.269 0-.549.094-.623.21-.088.136-.467.21-1.101.217-.84.007-.896.026-.423.139.463.11 3.926.302 5.233.29.225-.002.516.116.647.262.182.202.418.25.993.2l.754-.065-.759.143c-.8.15-1.074.355-.317.237.242-.037.584-.014.758.052.213.08.047.12-.506.122-.543.001-.935.093-1.149.27-.248.206-.738.292-2.077.367-1.559.087-1.704.119-1.317.287.327.143.352.194.1.205-.431.018.918.227 2.62.405.726.077 1.777.294 2.334.484l1.013.345-.973.001c-2.093.004-2.314.35-.311.489 1.788.124 1.883.414.175.534-.719.051-1.34.18-1.501.311-.2.163-.869.254-2.417.33-1.967.097-2.542.227-2.557.576 0 .077 1.036.282 2.681.529.385.058 1.278.09 1.985.07 1.814-.05 6.996.208 7.763.386.691.16.816.322.35.452-.16.045.076.054.525.021.45-.032 1.028-.005 1.285.06.44.113.437.12-.072.129-.297.006-.474.072-.395.149.124.12-.948.22-1.6.15-.11-.011-.345.051-.523.139-.177.088-.508.114-.734.058-.717-.177-1.892-.218-2.044-.071-.081.078-.534.137-1.008.131-.72-.008-.785-.031-.395-.14.376-.106.33-.118-.233-.06-1.786.183-2.467.198-2.315.052.098-.095 0-.123-.283-.076-1.37.23-1.599.25-1.266.114.241-.1.04-.124-.7-.086a34.76 34.76 0 0 0-1.157.07c-.065.01.251.105.7.211.686.162.723.19.234.177-1.067-.03-1.44.025-1.343.198.121.218-1.338.527-2.203.467-.355-.025-.597.002-.538.059.06.056-.832.13-1.98.163-1.576.044-2.2.12-2.548.308-.376.202-.866.247-2.633.242-1.435-.004-2.053.038-1.825.124.19.072.74.131 1.221.132.482.002.876.065.876.142 0 .197 1.013.172 1.388-.035.252-.14.282-.14.15 0-.21.222-.142.219.906-.042.477-.119.799-.15.715-.07-.098.094.25.151.971.16.911.012 1.013.035.54.126-.534.101-.54.112-.08.125.375.01.473.081.387.278-.08.184.036.294.375.358.27.051.432.15.36.22-.076.073.173.09.58.042.56-.066.712-.036.712.141 0 .165-.238.233-.875.249l-.876.022.817.053c1.266.081 1.615.188 1.051.32-.372.088-.312.11.292.104.503-.005.759-.076.759-.21 0-.12.138-.17.342-.124.189.043.415.01.503-.076.105-.101.047-.116-.167-.043-.226.077-.255.066-.094-.035.128-.08.989-.215 1.913-.299 2.07-.187 2.416-.187 1.876 0-.227.08-.352.203-.277.275.077.075.29.041.489-.078.465-.277 1.192-.293.809-.018-.288.207.514.264 6.164.438 3.599.11 8.288.539 8.288.756 0 .198 2.55.368 3.97.265.816-.059 1.652.028 1.517.158-.08.076-.014.14.161.14.229.003.22.035-.033.13-.186.071-.415.1-.509.066-.094-.034-.236.002-.317.079-.081.077-.922.141-1.87.141-.992 0-1.79.064-1.88.152-.093.089-.467.117-.906.068-.755-.085-2.234.135-2.234.33 0 .06-.278.075-.618.037-.362-.041-.561-.016-.48.062.163.158-.27.167-9.68.217-6.859.037-8.783.13-6.346.309.622.045 1.638.144 2.258.219.62.075 1.427.136 1.795.136.368 0 .733.062.811.137.079.075.374.133.656.129.283-.005.963.06 1.511.142.549.083 1.915.172 3.036.196 2.502.055 6.137.359 6.533.545.227.107.18.197-.21.399-.278.143-.601.26-.719.26-.119 0-.04.104.173.231.23.137.72.223 1.201.213.548-.013.783.037.718.151-.066.119-.588.156-1.71.125-1.441-.041-6.06.39-6.699.626-.116.042-1.563.073-3.217.068-1.654-.005-3.058.039-3.12.098-.061.06.855.12 2.036.133 1.96.023 3.19.07 6.253.236.589.032 1.322.114 1.63.182.618.136.579.15-1.053.368-.531.071-.611.121-.35.22.292.11.29.128-.014.131-.311.004-.311.02 0 .14.311.12.311.136 0 .147-.193.007.015.091.46.187l.812.174-.776.093c-.426.05-1.054.052-1.394.002l-.62-.09.584.295c.68.343.352.407-.424.083-.488-.203-.6-.2-1.456.053-.834.246-.874.28-.4.342.291.037.74.112.996.167.467.099.467.099 0-.136-.458-.23-.456-.232.117-.135.321.055.684.155.806.223.121.068.437.13.7.138.41.012.395.03-.105.125l-.583.111.583.023c.563.022.557.03-.175.248-.417.124-.759.302-.759.396 0 .118-.509.173-1.645.18-1.592.008-2.764.254-2.38.499.094.06-.066.037-.358-.054-.427-.132-.598-.125-.875.04-.19.114-.95.245-1.687.293-1.89.122-2.394.196-2.394.353 0 .075.624.136 1.386.136 1.5 0 2.583.18 2.583.427 0 .086-.209.188-.464.228-.255.04-.413.122-.35.182.062.06-.535.155-1.327.21-.792.054-1.755.213-2.14.352l-.699.254.68.09c.375.048.986.146 1.358.216.373.07.977.128 1.343.128s.665.061.665.136c0 .15-.467.223-2.218.344-.642.044-1.209.154-1.26.244-.051.09-.34.311-.642.491-.726.433-.695.551.231.877.43.15.906.439 1.06.64.242.317.216.402-.196.63-.262.146-.477.224-.477.173 0-.05-.156-.015-.347.08-.192.094-.29.227-.22.295.07.068-.024.123-.208.123s-.455.087-.602.192c-.147.106-.607.24-1.021.297-.489.067-.615.125-.36.164.489.074.459.591-.034.57-.757-.032-1.974.065-1.582.125.226.036.355.118.287.184-.067.065.194.23.581.367.388.136.705.287.705.335 0 .047.239.151.532.23.804.22.76.724-.078.898-1.02.212-.604.394.903.395 2.069.003 2.918.13 3.393.508.583.465.344.945-.666 1.334-.445.172-.81.35-.812.394 0 .083 1.688.36 2.889.473.87.082 1.02.18.469.304-.243.055-.577.18-.742.276-.164.097-.637.21-1.05.251l-3.523.342c-3.839.37-4.272.725-1.133.925 1.393.089 3.795.448 3.132.468-.169.005-.241.072-.162.149.082.078-.109.139-.438.139-.32 0-.878.07-1.24.154-.582.137-.606.166-.215.252.487.108-1.576.352-4.41.521-.9.054-1.845.115-2.102.136-.257.022-1.097.075-1.868.12-.77.044-1.949.238-2.619.43-.67.192-1.59.386-2.043.43-.453.044-.825.13-.825.191 0 .062-.357.19-.795.283-.437.095-.75.24-.697.322.062.097-.465.165-1.473.19-.863.022-1.626.087-1.695.144-.069.058-1.544.103-3.278.1-2.629-.004-3.224.034-3.586.228-.239.129-.58.2-.759.16-.178-.041-.325-.005-.325.08 0 .084-.315.153-.7.153-.385 0-.7.056-.7.124 0 .259-1.213.312-1.657.073-.322-.174-.703-.216-1.485-.163-.58.039-1.004.023-.944-.034.162-.156-1.182-.283-1.985-.188-.385.046-.7.168-.7.27 0 .11-.146.154-.35.108-.218-.05-.35.001-.35.134 0 .238-.794.44-1.176.3-.135-.05-.382-.024-.548.058-.374.185-6.104.236-6.51.057-.425-.187-1.806-.229-1.806-.054 0 .253-.808.166-1.239-.134-.415-.29-.863-.26-.863.058 0 .294-1.092.768-1.59.69-.252-.039-.529-.003-.615.08-.197.19-1.22.199-1.414.012-.078-.076-.34-.139-.578-.139-.238 0-.471-.067-.517-.15-.113-.202-2.195-.307-2.727-.138-.29.093-.512.085-.697-.026-.206-.123-.36-.086-.639.151-.62.527-1.5.998-1.864.998-.192 0-.876-.16-1.522-.355-.673-.203-1.36-.319-1.612-.271-.24.045-.649.004-.907-.092-.399-.148-.65-.12-1.668.193-1.224.376-1.753.374-2.27-.009-.228-.168-.356-.18-.573-.05-.153.091-.576.166-.94.166-.386 0-.72.091-.802.22-.102.158-.309.193-.752.125-1.242-.19-1.66-.207-1.66-.07 0 .081-.605.143-1.402.143-.778 0-1.4.061-1.4.139 0 .076-.27.139-.598.139-.339 0-.535.06-.453.139.078.076.033.139-.104.139-.136 0-.247-.089-.247-.197 0-.108-.289-.26-.642-.337-.353-.077-.51-.144-.35-.15.402-.016.37-.29-.033-.29-.18 0-.381.087-.45.193-.121.19-1.395.363-2.902.396-.418.009-.76.063-.76.12 0 .33-2.917.371-3.513.05-.383-.207-1.882-.28-2.173-.106-.089.053-.396.116-.681.14-.286.024-.896.303-1.357.62l-.836.577-1.131-.23c-.622-.126-1.48-.23-1.907-.23-.534 0-.776-.065-.776-.208 0-.289-.3-.261-.634.058-.283.27-1.233.26-1.233-.014 0-.224-1.421.456-1.69.807-.14.182-.4.331-.58.331-.18 0-.254.07-.167.154.274.264-.894-.016-1.533-.367-.423-.234-.76-.301-1.225-.247-.354.041-.642.133-.642.203 0 .229-1.7.731-2.553.755-.996.027-1.614.14-2.932.538-1.02.307-1.52.316-1.52.026 0-.269-1.208-.474-1.938-.33-.468.094-.787.074-1.163-.073-.519-.202-.794-.176-2.182.207-.37.102-.65.077-1.097-.098-.342-.133-.798-.197-1.055-.149a1.27 1.27 0 0 1-.812-.127c-.498-.297-1.243-.267-2.21.09-.802.295-.852.296-1.931.068-1.045-.221-1.988-.196-1.738.045.063.06-.121.117-.41.125-1.734.048-3.259.137-3.358.197-.064.037-.49.007-.949-.069-.55-.09-.883-.09-.977 0-.19.184-.254.186-1.132.036-.48-.082-.806-.08-.896.006-.09.087-.239.088-.412.003-.5-.245-2.42-.345-2.64-.138-.544.512-2.953.763-4.402.458-1.141-.24-1.36-.248-1.144-.04.114.11.01.137-.328.084-.287-.045-.612.007-.774.124a.835.835 0 0 1-.585.13c-.168-.038-.368-.01-.444.064-.076.073-.401.133-.723.133-.322 0-.781.062-1.02.138-.32.102-.53.084-.786-.07-.192-.114-.76-.208-1.263-.208a13.71 13.71 0 0 1-1.987-.192c-.916-.164-1.091-.164-1.198.002-.096.148-.42.173-1.384.106-.809-.057-1.315-.035-1.416.063-.105.1-.789.122-2.053.064-1.33-.061-1.85-.042-1.74.063.254.245-1.205.355-2.296.173-.734-.122-1.128-.126-1.48-.014-.606.194-1.52.2-1.322.01h-.007z"/>
</svg>