<svg viewBox="0 0 800 500" preserveAspectRatio="none" xmlns="http://www.w3.org/2000/svg" xmlns:xlink="http://www.w3.org/1999/xlink" width="100%" id="blobSvg">
  <g transform="translate(300, 100)">
    <path class="blob" d="M475.5,286.5Q474,323,457,355.5Q440,388,413,413Q386,438,355.5,459.5Q325,481,287.5,489Q250,497,211.5,492Q173,487,140.5,466Q108,445,81,419Q54,393,33.5,360Q13,327,7.5,288.5Q2,250,10,212.5Q18,175,40.5,144.5Q63,114,89.5,90Q116,66,146.5,45Q177,24,213.5,22.5Q250,21,287.5,19.5Q325,18,359.5,34.5Q394,51,418.5,80.5Q443,110,464.5,141.5Q486,173,481.5,211.5Q477,250,475.5,286.5Z" fill="#00cec9"></path>
  </g>
</svg>