<svg viewBox="0 0 800 500" preserveAspectRatio="none" xmlns="http://www.w3.org/2000/svg" xmlns:xlink="http://www.w3.org/1999/xlink" width="100%" id="blobSvg">
  <g transform="translate(388, -17)">
    <path class="blob" d="M486,287.5Q480,325,460,356.5Q440,388,417,418Q394,448,360,465.5Q326,483,288,488Q250,493,214,483Q178,473,142.5,460Q107,447,85.5,416Q64,385,41,355.5Q18,326,9.5,288Q1,250,9.5,212.5Q18,175,33.5,139.5Q49,104,79.5,80.5Q110,57,143.5,41.5Q177,26,213.5,13Q250,0,285,18Q320,36,356.5,44.5Q393,53,413.5,84.5Q434,116,460,144.5Q486,173,489,211.5Q492,250,486,287.5Z" fill="#d1d8e0"></path>
  </g>
</svg>