<svg viewBox="0 0 800 500" preserveAspectRatio="none" xmlns="http://www.w3.org/2000/svg" xmlns:xlink="http://www.w3.org/1999/xlink" width="100%" id="blobSvg">
  <g transform="translate(366, 43)">
    <path class="blob" d="M465.5,283Q455,316,450,354Q445,392,411.5,409Q378,426,345.5,434.5Q313,443,281.5,467.5Q250,492,216,476Q182,460,157,436.5Q132,413,93,403Q54,393,42,357.5Q30,322,38.5,286Q47,250,47.5,217Q48,184,59,151.5Q70,119,92.5,91.5Q115,64,149,53.5Q183,43,216.5,30.5Q250,18,285,26.5Q320,35,352.5,49.5Q385,64,403,95Q421,126,444,152.5Q467,179,471.5,214.5Q476,250,465.5,283Z" fill="#6FB918"></path>
  </g>
</svg>